<?xml version="1.0" standalone="no"?>
<!DOCTYPE svg PUBLIC "-//W3C//DTD SVG 1.1//EN" "http://www.w3.org/Graphics/SVG/1.1/DTD/svg11.dtd" >
<svg xmlns="http://www.w3.org/2000/svg">
<metadata></metadata>
<defs>
<font id="playfair_display_scBlkIt" horiz-adv-x="1038" >
<font-face units-per-em="2048" ascent="1638" descent="-410" />
<missing-glyph horiz-adv-x="526" />
<glyph horiz-adv-x="2048" />
<glyph horiz-adv-x="2048" />
<glyph horiz-adv-x="682" />
<glyph unicode="&#xd;" horiz-adv-x="0" />
<glyph unicode=" "  horiz-adv-x="526" />
<glyph unicode="&#x09;" horiz-adv-x="526" />
<glyph unicode="&#xa0;" horiz-adv-x="526" />
<glyph unicode="!" horiz-adv-x="713" d="M74 106q0 63 30 112.5t82 77.5t117 28q79 0 120.5 -35.5t41.5 -104.5q0 -54 -31 -103t-84 -79.5t-116 -30.5q-79 0 -119.5 34.5t-40.5 100.5zM279 408q30 130 30 293q0 68 -7 207.5t-7 213.5q0 117 27.5 226t93 181.5t172.5 72.5q82 0 127 -47.5t45 -141.5 q0 -104 -49 -213.5t-195.5 -360t-200.5 -438.5z" />
<glyph unicode="&#x22;" horiz-adv-x="930" d="M276 1278q0 57 26.5 107t75 80t109.5 30q59 0 95.5 -31t38.5 -86q0 -60 -35 -120t-108.5 -155t-100.5 -145h-29q-11 73 -31.5 139t-30.5 104.5t-10 76.5zM682 1278q0 57 26.5 107t75 80t109.5 30q59 0 95.5 -31t38.5 -86q0 -60 -35 -120t-108.5 -155t-100.5 -145h-29 q-11 73 -31.5 139t-30.5 104.5t-10 76.5z" />
<glyph unicode="#" horiz-adv-x="1262" d="M53 506l19 41h300l159 342h-300l17 41h302l140 303h49l-140 -303h334l140 303h49l-140 -303h292l-17 -41h-294l-159 -342h294l-21 -41h-292l-138 -299h-49l138 299h-334l-138 -299h-49l138 299h-300zM421 547h334l159 342h-334z" />
<glyph unicode="$" horiz-adv-x="1329" d="M10 322q0 69 22 124t63 87t95 32q79 0 127 -55t48 -145q0 -79 -31.5 -150t-75.5 -139q50 -31 122 -46l152 547q-88 82 -147 148t-98 141.5t-39 155.5q0 166 81 268t202.5 145.5t251.5 43.5l67 241h45l-67 -242q68 -1 124 -10l70 252h45l-72 -260q97 -21 189 -76 q153 -91 153 -256q0 -69 -22 -124t-63 -87t-95 -32q-78 0 -126 55t-48 145q0 79 31.5 150t75.5 139q-44 27 -108 42l-139 -501q123 -106 189 -170.5t116 -147.5t50 -171q0 -167 -96 -267.5t-235 -142.5t-286 -45l-67 -241h-45l67 241q-68 1 -125 9l-69 -250h-45l71 257 q-107 21 -204 79q-154 91 -154 256zM424 24q45 -6 98 -6h27l120 431q-33 33 -101 95zM595 21q115 12 161.5 62.5t46.5 135.5q0 83 -99 193zM598 1245q0 -75 74 -165l97 348q-76 -12 -123.5 -59t-47.5 -124zM707 1042q37 -40 100 -95l133 477q-55 8 -121 8h-4z" />
<glyph unicode="%" horiz-adv-x="1671" d="M28 -86l1706 1774l31 -27l-1706 -1774zM229 1151q0 98 64 193t175.5 155t246.5 60t212 -67.5t77 -186.5q0 -98 -63.5 -193t-174.5 -155t-246 -60q-136 0 -213.5 66.5t-77.5 187.5zM489 1051q0 -60 12 -93.5t34 -33.5q63 0 110.5 80t72.5 194t25 209q0 59 -11.5 92 t-33.5 33q-63 0 -110.5 -80t-73 -193.5t-25.5 -207.5zM758 225q0 98 64 193t175.5 155t245.5 60q135 0 212 -67t77 -187q0 -98 -63.5 -193t-174.5 -155t-245 -60q-137 0 -214 66.5t-77 187.5zM1018 125q0 -60 11.5 -93.5t33.5 -33.5q63 0 110.5 80t73 194t25.5 209 q0 58 -12 91.5t-33 33.5q-63 0 -110.5 -80t-73 -193.5t-25.5 -207.5z" />
<glyph unicode="&#x26;" horiz-adv-x="1831" d="M47 432q0 139 75 254.5t216 196.5t334 116q-105 28 -155 81.5t-50 121.5q0 76 56 129.5t146.5 80t192.5 26.5q133 0 197.5 -42.5t64.5 -113.5q0 -44 -22.5 -74.5t-56.5 -45.5t-68 -15l-2 37q43 0 72.5 27t29.5 65q0 36 -30 58t-82 22q-67 0 -129.5 -35.5t-102 -100.5 t-39.5 -147q0 -31 6 -61q75 12 129 12q74 0 74 -43q0 -22 -18.5 -32.5t-44.5 -10.5q-49 0 -142 45q-58 -26 -106.5 -92t-76.5 -156.5t-28 -187.5q0 -189 110 -286t321 -97q136 0 258.5 40t201 125.5t78.5 215.5q0 88 -38 151q-128 -39 -236 -71.5t-197 -59.5 q-92 -27 -134 -64.5t-42 -90.5q0 -54 36.5 -76.5t90.5 -22.5q80 0 137 41t80 90l35 -14q-16 -38 -51 -74.5t-88.5 -61t-120.5 -24.5q-68 0 -127.5 26.5t-97 84t-37.5 143.5q0 130 92 226.5t278 152.5q122 37 258 77.5t285 86.5q93 28 142.5 48t90.5 60.5t41 104.5 q0 51 -27 89t-73 57.5t-102 19.5q-33 0 -56 -8q119 -46 119 -148q0 -52 -31 -90.5t-80.5 -59t-103.5 -20.5q-53 0 -95.5 20.5t-66.5 57t-24 82.5q0 61 38.5 104.5t104.5 67.5q70 29 178 29q293 0 293 -299q0 -129 -54.5 -217.5t-157 -147.5t-263.5 -108q47 -77 47 -177 q0 -133 -86 -262t-262.5 -213t-431.5 -84q-192 0 -344 51t-240 155t-88 255z" />
<glyph unicode="'" horiz-adv-x="524" d="M276 1278q0 57 26.5 107t75 80t109.5 30q59 0 95.5 -31t38.5 -86q0 -60 -35 -120t-108.5 -155t-100.5 -145h-29q-11 73 -31.5 139t-30.5 104.5t-10 76.5z" />
<glyph unicode="(" horiz-adv-x="860" d="M70 457q0 222 130 443.5t358.5 414.5t521.5 336l20 -27q-213 -161 -359.5 -341t-227.5 -408t-81 -512q0 -197 34.5 -358t109.5 -351l-37 -27q-154 128 -255 249t-157.5 264t-56.5 317z" />
<glyph unicode=")" horiz-adv-x="862" d="M-219 -346q213 161 359.5 341t227.5 408t81 512q0 197 -34.5 358t-109.5 351l37 27q154 -128 255 -249t157.5 -264t56.5 -317q0 -222 -130 -443.5t-358.5 -414.5t-521.5 -336z" />
<glyph unicode="*" horiz-adv-x="977" d="M173 885q0 73 83 114q36 18 81 26.5t126.5 17.5t128.5 16q-40 6 -120 16t-120.5 19t-64.5 26q-39 25 -39 67q0 43 39 89q50 63 108 63q30 0 56 -18q27 -18 47.5 -51t52.5 -97t51 -100q-5 41 -15 95t-16 92.5t-6 67.5q0 28 6 54q15 57 55 84t89 27q40 0 66 -19t26 -58 q0 -18 -4 -34q-9 -34 -32.5 -73.5t-72 -112t-76.5 -116.5q35 33 99.5 97.5t101 96.5t68.5 49q38 18 65 18q30 0 50 -17.5t28 -45.5q8 -21 8 -42q0 -73 -84 -114q-35 -18 -79.5 -26.5t-124.5 -17.5t-126 -16q39 -6 117.5 -16t118.5 -19t64 -26q39 -25 39 -66t-39 -89 q-50 -63 -108 -63q-30 0 -56 18t-46.5 50.5t-52.5 95.5t-51 97q6 -38 15.5 -90.5t15 -91t5.5 -67.5q0 -31 -7 -56q-14 -57 -54 -83.5t-87 -26.5q-42 0 -68.5 18t-26.5 57q0 13 5 35q9 36 33 77t73.5 114t76.5 115q-37 -35 -102 -100t-101 -97t-68 -49q-37 -18 -65 -18 q-30 0 -50.5 18t-28.5 45q-7 18 -7 41z" />
<glyph unicode="+" horiz-adv-x="1165" d="M94 696l19 62h477l137 483h74l-137 -483h475l-19 -62h-475l-137 -481h-74l137 481h-477z" />
<glyph unicode="," horiz-adv-x="635" d="M-2 106q0 63 30 112.5t82 77.5t117 28q166 0 166 -168q0 -144 -82 -260.5t-225 -178.5l-10 37q90 38 154.5 113t70.5 168q-61 -64 -143 -64q-77 0 -118.5 34.5t-41.5 100.5z" />
<glyph unicode="-" d="M109 455l55 202h739l-55 -202h-739z" />
<glyph unicode="." horiz-adv-x="618" d="M-2 106q0 63 30 112.5t82 77.5t117 28q79 0 120.5 -35.5t41.5 -104.5q0 -54 -31 -103t-84 -79.5t-116 -30.5q-79 0 -119.5 34.5t-40.5 100.5z" />
<glyph unicode="/" horiz-adv-x="934" d="M-96 -29l1122 1508h68l-1123 -1508h-67z" />
<glyph unicode="0" horiz-adv-x="1350" d="M39 352q0 183 106.5 354.5t285.5 278.5t384 107q140 0 243 -46.5t158.5 -132.5t55.5 -202q0 -183 -107 -354.5t-286.5 -278.5t-382.5 -107q-139 0 -242 46.5t-159 132.5t-56 202zM412 297q0 -144 31.5 -216.5t80.5 -72.5q112 0 197.5 114.5t131.5 291t46 352.5 q0 145 -31.5 217t-81.5 72q-112 0 -197.5 -114t-131 -290t-45.5 -354z" />
<glyph unicode="1" horiz-adv-x="801" d="M82 0l254 850q-68 -21 -250 -59l6 43q153 33 269.5 74t197.5 82.5t170 94.5h41l-326 -1085h-362z" />
<glyph unicode="2" horiz-adv-x="1139" d="M-55 0l10 43q24 20 228 173.5t350.5 328t146.5 323.5q0 80 -42 119t-114 39q-83 0 -165 -45.5t-134.5 -117.5t-52.5 -146q0 -50 27.5 -74.5t89.5 -24.5q55 0 97 20t93 64l25 -28q-54 -51 -113.5 -75t-114.5 -24q-63 0 -108 31t-45 109q0 92 69 179t194.5 142.5 t285.5 55.5q111 0 192.5 -28t125.5 -79t44 -117q0 -120 -122.5 -215.5t-309 -194.5t-240.5 -136q41 0 113 -18.5t119 -29t104 -10.5q88 0 143.5 25.5t55.5 72.5q0 54 -66 91l21 26q62 -35 88.5 -78t26.5 -104q0 -80 -38.5 -150.5t-120 -114.5t-202.5 -44q-69 0 -156 19 t-151.5 31t-136.5 12q-63 0 -107.5 -11.5t-109.5 -38.5z" />
<glyph unicode="3" horiz-adv-x="1104" d="M-186 -309l10 37q171 11 342.5 79.5t286 192.5t114.5 293q0 82 -24 132t-68 54q-48 -19 -72 -27t-47 -8q-36 0 -36 21q0 2 2 10q8 38 97 38q26 0 40 -1q100 46 160.5 124.5t60.5 184.5q0 87 -54 136t-153 49q-73 0 -140.5 -33t-109 -86.5t-41.5 -108.5q0 -50 28 -74 t91 -24q69 0 127 31l23 -31q-80 -43 -164 -43q-63 0 -108.5 31t-45.5 108q0 75 68 148.5t185.5 120.5t256.5 47q114 0 199 -26t130.5 -73t45.5 -108q0 -92 -76 -167.5t-191.5 -127t-238.5 -78.5q198 -3 314 -65.5t116 -198.5q0 -158 -181.5 -284t-447 -198t-499.5 -75z" />
<glyph unicode="4" horiz-adv-x="1124" d="M-127 111l12 43l1041 938h53l-252 -938h262l-12 -43h-262l-107 -400h-362l108 400h-481zM-54 154h420l135 500z" />
<glyph unicode="5" horiz-adv-x="983" d="M-190 -303l10 37q144 0 293.5 68t248.5 192.5t99 286.5q0 95 -41 143.5t-135 48.5q-88 0 -185 -55l-20 10l268 633q41 2 78 -4t118.5 -26.5t145.5 -20.5q72 0 120 20t83 72l25 -15q-56 -154 -137.5 -240.5t-184.5 -86.5q-30 0 -63 9.5t-106.5 36t-114.5 26.5 q-13 0 -19 -1l-164 -370q133 74 336 74q375 0 375 -250q0 -173 -166 -305t-407 -205t-457 -78z" />
<glyph unicode="6" horiz-adv-x="1214" d="M45 354q0 275 180.5 520.5t440.5 407t481 197.5l12 -41q-182 -54 -353 -216t-280.5 -418t-109.5 -573q0 -86 8.5 -133.5t26 -66.5t45.5 -19q72 0 134.5 100t100 243t37.5 257q0 88 -22.5 126t-57.5 38q-42 0 -83 -46t-66 -140l-35 10q41 157 124 227t206 70q90 0 160 -35 t110.5 -105.5t40.5 -170.5q0 -158 -97 -300t-261 -228.5t-355 -86.5q-387 0 -387 383z" />
<glyph unicode="7" horiz-adv-x="1053" d="M78 762q0 81 35.5 151.5t112.5 115t194 44.5q90 0 198.5 -29.5t176 -45t160.5 -15.5q56 0 98.5 16.5t74.5 61.5h60q-230 -254 -335 -386t-176.5 -280t-127.5 -370q-22 -90 -26 -118t-7 -44q-14 -73 -70.5 -119.5t-150.5 -46.5q-161 0 -161 147q0 41 13 90q50 183 224 373 t403.5 394t295.5 269q-56 -36 -168 -111t-175.5 -102.5t-134.5 -27.5q-45 0 -80 9t-98.5 34t-114.5 25q-58 0 -94.5 -27t-36.5 -84q0 -71 59 -117.5t164 -70.5l-10 -35q-303 62 -303 299z" />
<glyph unicode="8" horiz-adv-x="1219" d="M-23 242q0 147 154 272t383 211q-68 63 -108 108.5t-67.5 104t-27.5 129.5q0 120 79.5 214t211.5 146t283 52q167 0 272 -56.5t105 -165.5q0 -211 -453 -413q22 -19 102 -88t122 -144.5t42 -160.5q0 -134 -93.5 -244t-247.5 -173t-326 -63q-121 0 -218.5 29t-155 90 t-57.5 152zM342 207q0 -96 28 -147.5t93 -51.5q66 0 129 49t102 128.5t39 166.5q0 74 -26 135t-66.5 109t-102.5 106q-87 -83 -141.5 -215.5t-54.5 -279.5zM633 1155q0 -85 38.5 -151.5t108.5 -132.5q59 76 95 184t36 223q0 164 -86 164q-47 0 -91.5 -42t-72.5 -108.5 t-28 -136.5z" />
<glyph unicode="9" horiz-adv-x="1192" d="M25 477q0 158 96.5 300t260.5 228.5t355 86.5q387 0 387 -383q0 -266 -177.5 -505.5t-433 -397.5t-470.5 -191l-12 41q176 51 343 210.5t273.5 409t106.5 555.5q0 86 -9 134t-26 67t-45 19q-72 0 -135 -100t-100.5 -242.5t-37.5 -257.5q0 -88 22.5 -126t57.5 -38 q42 0 83 46t67 140l35 -10q-42 -157 -125 -227t-205 -70q-90 0 -160 35t-110.5 105.5t-40.5 170.5z" />
<glyph unicode=":" horiz-adv-x="682" d="M25 106q0 63 30 112.5t82 77.5t117 28q79 0 120.5 -35.5t41.5 -104.5q0 -54 -31 -103t-84 -79.5t-116 -30.5q-79 0 -119.5 34.5t-40.5 100.5zM229 874q0 63 30 112.5t82 77.5t117 28q79 0 120.5 -35.5t41.5 -104.5q0 -54 -31 -103t-84 -79.5t-116 -30.5 q-79 0 -119.5 34.5t-40.5 100.5z" />
<glyph unicode=";" horiz-adv-x="692" d="M12 106q0 63 30 112.5t82 77.5t117 28q166 0 166 -168q0 -144 -82 -260.5t-225 -178.5l-10 37q90 38 154.5 113t70.5 168q-61 -64 -143 -64q-77 0 -118.5 34.5t-41.5 100.5zM246 874q0 63 30 112.5t82 77.5t117 28q79 0 120.5 -35.5t41.5 -104.5q0 -54 -31 -103 t-84 -79.5t-116 -30.5q-79 0 -119.5 34.5t-40.5 100.5z" />
<glyph unicode="&#x3c;" horiz-adv-x="1204" d="M94 727l1131 465l20 -59l-997 -414l678 -357l-33 -65z" />
<glyph unicode="=" horiz-adv-x="1313" d="M121 553l18 61h1026l-18 -61h-1026zM203 840l18 61h1026l-18 -61h-1026z" />
<glyph unicode="&#x3e;" horiz-adv-x="1210" d="M92 377l942 393l-758 406l33 59l879 -473l-1075 -445z" />
<glyph unicode="?" horiz-adv-x="1061" d="M154 633q0 73 38.5 136t94 113t168.5 142q23 18 125 100.5t141 143t39 121.5q0 74 -41.5 117.5t-118.5 43.5q-93 0 -151 -37q50 3 97 -16.5t76 -57.5t29 -85q0 -49 -25 -91t-68.5 -67t-96.5 -25q-47 0 -90 21t-70 60.5t-27 93.5q0 96 70.5 153t172.5 80t208 23 q118 0 221 -29.5t166.5 -89t63.5 -144.5q0 -58 -40.5 -117t-121.5 -128.5t-223 -171.5q-140 -100 -208.5 -161t-94 -106.5t-25.5 -101.5q0 -55 35 -90t100 -35q74 0 131 29q-53 17 -90 59.5t-37 106.5q0 47 22 84.5t61.5 59t90.5 21.5q40 0 75 -19t56 -52.5t21 -73.5 q0 -92 -65 -150.5t-159.5 -84t-187.5 -25.5q-103 0 -184.5 27.5t-129.5 83.5t-48 139zM231 106q0 63 30 112.5t82 77.5t117 28q79 0 120.5 -35.5t41.5 -104.5q0 -54 -31 -103t-84 -79.5t-116 -30.5q-79 0 -119.5 34.5t-40.5 100.5z" />
<glyph unicode="@" horiz-adv-x="1788" d="M55 338q0 233 118 451.5t346.5 357.5t541.5 139q203 0 351 -62.5t229 -187t81 -305.5q0 -213 -103.5 -367t-254 -232.5t-285.5 -78.5q-171 0 -171 146q0 16 2 40q-98 -186 -283 -186q-108 0 -178 59.5t-70 192.5q0 138 76 297.5t203.5 268t273.5 108.5q79 0 114.5 -35.5 t38.5 -104.5l33 111q193 0 309 29l-217 -731q-13 -45 -13 -74q0 -45 38 -45q60 0 167.5 69t192 204.5t84.5 326.5q0 174 -77 290t-215.5 173t-325.5 57q-297 0 -516 -133.5t-333 -343t-114 -430.5q0 -206 98 -340t258 -195t351 -61q146 0 284.5 34.5t251.5 98.5l13 -26 q-102 -65 -243 -103.5t-304 -38.5q-200 0 -370 62t-276 202.5t-106 362.5zM700 299q0 -65 15.5 -94t52.5 -29q55 0 99.5 57t86.5 175l103 339q4 27 4 49q0 95 -62 95q-52 0 -123.5 -90t-123.5 -227.5t-52 -274.5z" />
<glyph unicode="A" horiz-adv-x="1370" d="M-197 0l9 41q40 11 74 36.5t73.5 73t101.5 134.5l836 1175q33 -4 79 -4t75 4l82 -1288q5 -67 34 -98t66 -33l-8 -41q-120 6 -346 6q-238 0 -349 -6l9 41q66 3 103 15.5t55.5 43t18.5 87.5q0 17 -1 26l-18 336h-402l-199 -281q-48 -70 -48 -117q0 -96 188 -110l-9 -41 q-211 6 -290 6q-70 0 -134 -6zM324 590h371l-25 489z" />
<glyph unicode="B" horiz-adv-x="1454" d="M-98 0l8 41q74 3 110.5 16t58.5 48t42 112l270 1016q18 67 18 99q0 40 -30 57.5t-109 19.5l11 41q126 -6 356 -6q83 0 166.5 2t138.5 2q496 0 496 -277q0 -110 -75.5 -202t-220 -148.5t-343.5 -62.5h16q159 0 276 -37q123 -39 187.5 -109t64.5 -161q0 -142 -85.5 -243.5 t-246.5 -154.5t-384 -53q-46 0 -145.5 3t-217.5 3q-233 0 -362 -6zM521 124q0 -77 81 -77q86 0 156.5 64.5t110.5 167.5t40 213q0 107 -45.5 175t-150.5 68h-39l-137 -518q-16 -60 -16 -93zM683 770h30q103 0 176 66t110 172.5t37 226.5q0 83 -24 128.5t-90 45.5 q-30 0 -48 -12t-31.5 -42.5t-29.5 -90.5z" />
<glyph unicode="C" horiz-adv-x="1450" d="M76 496q0 246 135.5 473t373.5 368.5t529 141.5q112 0 181 -35.5t122 -97.5q15 -18 30 -18q38 0 83 122h43q-68 -177 -131 -471h-45q20 118 20 177q0 90 -35 149q-38 65 -92 90.5t-133 25.5q-161 0 -301.5 -133.5t-224.5 -355.5t-84 -475q0 -207 70.5 -307.5 t197.5 -100.5q69 0 141.5 31.5t124.5 87.5q54 58 94 129t91 195h45q-97 -355 -121 -492h-45q6 44 6 70q0 52 -26 52q-16 0 -42 -18q-192 -133 -409 -133q-305 0 -451.5 136t-146.5 389z" />
<glyph unicode="D" horiz-adv-x="1642" d="M-88 0l6 41q70 3 105.5 16t57.5 48.5t42 111.5l268 1016q13 49 13 80q0 44 -29.5 68t-102.5 28l7 41q163 -7 318 -7l75 1q171 6 303 6q307 0 476 -130t169 -384q0 -222 -106.5 -436.5t-339.5 -357t-590 -142.5q-43 0 -133 3t-191 3q-225 0 -348 -6zM514 91q0 -30 19 -42 t67 -12q180 0 316.5 149.5t209 376t72.5 447.5q0 403 -260 403q-46 0 -65.5 -12t-30 -40.5t-35.5 -123.5l-268 -1024q-25 -93 -25 -122z" />
<glyph unicode="E" horiz-adv-x="1305" d="M-98 0l8 41q74 3 110.5 16t58.5 48t42 112l270 1016q17 65 17 98q0 31 -13.5 47t-42.5 22.5t-82 8.5l11 41q235 -6 710 -6q295 0 424 6q-50 -129 -78 -242q-11 -46 -26 -127h-45v8q0 113 -26 182q-28 71 -82.5 101.5t-139.5 30.5h-6q-71 0 -106.5 -12t-57 -46.5 t-41.5 -111.5l-128 -483h36q64 0 123 31.5t103 84t67 113.5h45q-26 -79 -43.5 -148.5t-26.5 -101.5q-27 -102 -53 -250h-45q0 54 -19 106.5t-63.5 88t-116.5 35.5h-18l-131 -492q-18 -70 -18 -100q0 -29 13.5 -44t41.5 -20.5t79 -5.5h27q100 0 175.5 34.5t140.5 113 t132 215.5h46q-14 -36 -44 -148q-32 -117 -53 -262q-139 6 -463 6q-475 0 -712 -6z" />
<glyph unicode="F" horiz-adv-x="1235" d="M-98 0l8 41q74 3 110.5 16t58.5 48t42 112l270 1016q17 65 17 98q0 31 -13.5 47t-42.5 22.5t-82 8.5l11 41q235 -6 710 -6q295 0 424 6q-41 -108 -78 -242q-36 -130 -47 -188h-45q3 39 3 73q0 166 -66 238t-185 72h-6q-64 0 -96 -12t-51 -46.5t-37 -111.5l-128 -483h56 q92 0 169 61.5t124 167.5h45q-38 -115 -69 -250q-25 -99 -64 -311h-45q0 141 -49 216t-139 75h-39l-131 -492q-15 -57 -15 -91t17 -51.5t53.5 -24.5t105.5 -9l-8 -41q-138 6 -407 6q-258 0 -381 -6z" />
<glyph unicode="G" horiz-adv-x="1559" d="M61 440q0 237 134.5 479.5t373 401t533.5 158.5q84 0 145 -17t104 -45t87 -71q19 -19 35 -19q39 0 81 123h45q-67 -180 -131 -471h-45q11 83 11 154q0 48 -6 81.5t-23 67.5q-39 77 -119 118.5t-196 41.5q-186 0 -325.5 -178t-213.5 -430.5t-74 -460.5q0 -183 62.5 -272 t189.5 -89q68 0 107 29q28 20 42 52.5t35 111.5l48 180q18 68 18 106q0 36 -17 54.5t-52.5 26t-102.5 10.5l10 41q129 -7 389 -7q234 0 338 7l-10 -41q-49 -4 -73 -16.5t-41 -46.5t-38 -113l-108 -406h-41v6q0 57 -19 84q-20 27 -61 27q-38 0 -79.5 -15.5t-85.5 -37 t-70 -33.5q-129 -60 -263 -60q-184 0 -317.5 55t-205 160.5t-71.5 253.5z" />
<glyph unicode="H" horiz-adv-x="1733" d="M-96 0l10 41q71 3 107 16t58 48.5t42 111.5l270 1016q17 65 17 98q0 31 -13.5 47t-42.5 22.5t-82 8.5l11 41q118 -6 383 -6q220 0 364 6l-10 -41q-75 -3 -111.5 -16t-58 -48t-41.5 -112l-128 -483h452l129 483q17 65 17 98q0 31 -14 47t-42.5 22.5t-81.5 8.5l10 41 q123 -6 360 -6q261 0 387 6l-10 -41q-75 -3 -111.5 -16t-58 -48t-41.5 -112l-270 -1016q-18 -70 -18 -100t13.5 -45.5t42.5 -22t83 -8.5l-8 -41q-123 6 -385 6q-237 0 -363 -6l8 41q74 3 111 16t58.5 48t41.5 112l131 492h-452l-131 -492q-18 -70 -18 -100t13.5 -45.5 t42.5 -22t82 -8.5l-8 -41q-126 6 -362 6q-257 0 -383 -6z" />
<glyph unicode="I" horiz-adv-x="864" d="M-96 0l10 41q71 3 107 16t58 48.5t42 111.5l270 1016q17 65 17 98q0 31 -13.5 47t-42.5 22.5t-82 8.5l11 41q113 -6 362 -6q232 0 385 6l-10 -41q-75 -3 -111.5 -16t-58 -48t-41.5 -112l-270 -1016q-18 -70 -18 -100t13.5 -45.5t42.5 -22t82 -8.5l-8 -41q-132 6 -383 6 q-242 0 -362 -6z" />
<glyph unicode="J" horiz-adv-x="1464" d="M31 -203q0 80 55.5 129t157.5 49q90 0 148.5 -38.5t58.5 -110.5q0 -116 -134 -172q21 -4 48 -4q60 0 100.5 39.5t72.5 120t74 231.5l142 496q26 92 61 172h-280l6 41h293q63 128 151 227t194 177.5t265 176.5q-111 -31 -228.5 -96t-188.5 -94t-179 -29q-58 0 -111 14 t-145 47t-141 33q-52 0 -84.5 -25.5t-32.5 -78.5q0 -147 282 -164l-4 -37q-206 13 -325 96.5t-119 229.5q0 132 82.5 209t243.5 77q144 0 270.5 -66t203 -99t201.5 -33q80 0 173 17.5t163 53.5q79 120 128 120q14 0 28 -11q13 -11 13 -25q0 -50 -150 -106 q-104 -95 -174 -244t-132 -370h205l-6 -41h-210l-21 -80l-127 -496q-60 -234 -225.5 -376t-464.5 -142q-154 0 -246 43t-92 139z" />
<glyph unicode="K" horiz-adv-x="1604" d="M-96 0l10 41q71 3 107 16t58 48.5t42 111.5l270 1016q17 65 17 98q0 31 -13.5 47t-42.5 22.5t-82 8.5l11 41q119 -6 383 -6q220 0 364 6l-10 -41q-75 -3 -111.5 -16t-58 -48t-41.5 -112l-270 -1016q-18 -70 -18 -100t13.5 -45.5t42.5 -22t82 -8.5l-8 -41q-126 6 -362 6 q-257 0 -383 -6zM721 742q0 4 2 14q5 21 18 31t40 10q37 0 115 -21q120 18 173.5 109t103 277t105.5 249q60 68 162 68q69 0 124 -28.5t86 -80.5t31 -121q0 -61 -27.5 -117.5t-80 -92t-123.5 -35.5q-46 0 -85.5 19t-64 57.5t-24.5 93.5q0 81 57 153t154 107q-20 10 -53 10 q-43 0 -72 -14.5t-53 -43.5q-49 -59 -98 -229t-96 -265.5t-152 -126.5q133 -9 211 -42t111.5 -88t33.5 -136q0 -40 -8 -93l-33 -205q-1 -4 -1 -11q0 -20 13 -32.5t33 -12.5q56 0 88 99l35 104h41l-53 -158q-37 -110 -115 -164.5t-176 -54.5q-89 0 -152 28t-95.5 78 t-32.5 116q0 21 5 51l58 323q8 50 8 78q0 62 -38 90q-90 -23 -128 -23q-47 0 -47 30z" />
<glyph unicode="L" horiz-adv-x="1264" d="M-98 0l8 41q74 3 110.5 16t58.5 48t42 112l270 1016q17 65 17 98q0 31 -13.5 47t-42.5 22.5t-82 8.5l11 41q119 -6 387 -6q214 0 358 6l-10 -41q-75 -3 -111.5 -16t-58 -48t-41.5 -112l-270 -1016q-18 -70 -18 -100q0 -29 13.5 -44t41.5 -20.5t79 -5.5h37 q75 0 158.5 38.5t162.5 124.5t134 220h45q-21 -54 -49 -168q-32 -108 -54 -262q-139 6 -462 6q-484 0 -721 -6z" />
<glyph unicode="M" horiz-adv-x="1944" d="M-96 0l8 41q96 4 148 69.5t79 170.5l254 952q17 65 17 98q0 31 -13.5 47t-42.5 22.5t-82 8.5l11 41q112 -6 346 -6q109 0 188 6l119 -934l592 928h201q225 0 378 6l-10 -41q-75 -3 -111.5 -16t-58 -48t-41.5 -112l-270 -1016q-17 -65 -17 -98q0 -31 13.5 -47t42.5 -22.5 t82 -8.5l-8 -41q-151 6 -377 6q-252 0 -369 -6l8 41q75 3 111.5 16t58 48t41.5 112l297 1104l-850 -1331h-45l-182 1196l-238 -905q-15 -55 -15 -98q0 -137 181 -142l-8 -41q-73 6 -244 6q-126 0 -194 -6z" />
<glyph unicode="N" horiz-adv-x="1763" d="M-174 68q0 64 30.5 113t82.5 75.5t116 26.5q84 0 133.5 -40.5t49.5 -111.5q0 -60 -28 -109t-76.5 -80.5t-108.5 -41.5q15 -17 51 -17q103 0 176 115q77 120 158.5 430t177.5 801v4q12 57 12 91t-14.5 51.5t-47.5 24.5t-96 9l11 41q64 -6 182 -6q95 0 166 6l447 -870 q157 649 284 833q90 131 221 131q71 0 125.5 -29t84.5 -79t30 -111q0 -64 -30.5 -113t-83 -75.5t-116.5 -26.5q-84 0 -133 40t-49 112q0 60 27.5 109t76 80.5t109.5 41.5q-16 16 -51 16q-50 0 -94.5 -30.5t-79.5 -81.5q-91 -136 -189 -477t-223 -930h-45l-536 975 q-173 -831 -291 -988q-45 -60 -95.5 -94.5t-123.5 -34.5q-71 0 -125.5 29t-84.5 79t-30 112z" />
<glyph unicode="O" horiz-adv-x="1657" d="M70 463q0 232 124.5 469t348.5 392t504 155q188 0 324 -58t209 -169t73 -267q0 -231 -125.5 -467.5t-350 -391.5t-503.5 -155q-188 0 -324 58t-208 168.5t-72 265.5zM512 436q0 -131 23 -228t64 -148.5t93 -51.5q129 0 249 147.5t193.5 381.5t73.5 477q0 131 -23 228 t-63.5 148.5t-93.5 51.5q-129 0 -249 -147.5t-193.5 -381.5t-73.5 -477z" />
<glyph unicode="P" horiz-adv-x="1391" d="M-98 0l8 41q74 3 110.5 16t58.5 48t42 112l270 1016q14 78 14 94q0 41 -29 59.5t-106 22.5l11 41q119 -6 374 -6q49 0 148.5 2t150.5 2q270 0 400.5 -76t130.5 -233q0 -155 -107 -279.5t-301 -198t-445 -79.5l-97 -365q-14 -50 -14 -82q0 -45 30.5 -67.5t103.5 -26.5 l-8 -41q-141 6 -356 6q-266 0 -389 -6zM643 624q143 10 235 99.5t133.5 216.5t41.5 254q0 106 -38 160.5t-120 54.5q-33 0 -44.5 -19t-23.5 -69t-22 -88z" />
<glyph unicode="Q" horiz-adv-x="1772" d="M-70 6q0 74 40.5 134t112 94t159.5 34q78 0 159.5 -27t158 -69.5t177.5 -107.5q177 96 307.5 236t202.5 321.5t72 394.5q0 205 -72 315.5t-209 110.5q-131 0 -232.5 -96t-157.5 -246.5t-56 -306.5q0 -73 16 -122.5t58.5 -77.5t119.5 -28q78 0 146.5 28t118 77t75.5 112 q22 51 25 109q-21 -75 -79 -109t-122 -34q-54 0 -95 24.5t-63 68t-22 97.5q0 65 31 118t83.5 83t114.5 30q93 0 146 -66t53 -177q0 -128 -69.5 -225t-194 -150t-283.5 -53q-141 0 -253 42.5t-176 125.5t-64 200q0 169 129.5 310t343.5 222t456 81q192 0 344.5 -51.5 t239 -144.5t86.5 -214q0 -156 -142 -345t-368.5 -369t-474.5 -313q118 -76 196 -121t165 -76t170 -31q104 0 160.5 44.5t80.5 104.5q-70 -67 -174 -67q-55 0 -100.5 21t-72 62t-26.5 99q0 60 29 106.5t81 72.5t118 26q95 0 154 -53t59 -154q0 -112 -74.5 -219t-211.5 -174.5 t-316 -67.5q-134 0 -242.5 38t-188.5 92t-176 136q-152 -49 -260 -49q-99 0 -156 42.5t-57 131.5zM-23 -18q0 -52 47 -83.5t132 -31.5q81 0 214 42q-90 75 -154.5 112.5t-135.5 37.5q-51 0 -77 -20t-26 -57z" />
<glyph unicode="R" horiz-adv-x="1520" d="M-98 0l8 41q74 3 110.5 16t58.5 48t42 112l268 1016q18 72 18 96q0 39 -30 57t-107 23l11 41q119 -6 348 -6q81 0 168.5 2t144.5 2q189 0 308 -28t177 -90t58 -165q0 -124 -79.5 -220t-225.5 -155t-343 -76q135 -9 227.5 -31t148 -71.5t55.5 -135.5q0 -25 -4 -48 l-35 -213q-5 -30 -5 -48q0 -79 66 -79q42 0 72.5 32.5t54.5 98.5l10 29h48l-9 -27q-40 -130 -125.5 -190t-232.5 -60q-148 0 -221.5 56t-73.5 159q0 28 4 52l39 233q6 36 6 69q0 74 -44.5 114t-153.5 45l-127 -482q-20 -76 -20 -100q0 -38 30 -55t108 -21l-8 -41 q-141 6 -364 6q-258 0 -381 -6zM674 735q98 5 189.5 58.5t150.5 158.5t59 256q0 201 -143 201q-43 0 -66.5 -22.5t-40.5 -83.5z" />
<glyph unicode="S" horiz-adv-x="1247" d="M-72 -14q68 162 140 491h41q-19 -53 -19 -141q0 -157 87 -237.5t247 -80.5q133 0 186.5 50t53.5 139q0 116 -52.5 211t-206 288t-153.5 357q0 135 82.5 229t207 140.5t249.5 46.5q87 0 156.5 -16t103.5 -31t102 -48q11 -5 34.5 -16.5t33.5 -11.5q16 0 31.5 25.5 t35.5 82.5h41q-78 -190 -121 -417h-41q13 55 13 112q0 124 -78.5 194t-216.5 70q-97 0 -159 -48t-62 -150q0 -135 150 -309t228 -282t78 -249q0 -139 -95 -232.5t-233 -137.5t-268 -44q-104 0 -170.5 10t-114 29t-112.5 56q-54 30 -70 30q-19 0 -31.5 -9t-24.5 -31.5 t-32 -69.5h-41z" />
<glyph unicode="T" horiz-adv-x="1423" d="M160 1161q0 65 34.5 126.5t114.5 101.5q101 49 275 49q90 0 182 -5t272.5 -18.5t274.5 -13.5q105 0 184 15q-36 33 -59 83t-23 111q0 62 26 108t72 71.5t105 25.5t105 -25t71 -65.5t25 -86.5q0 -150 -172 -223q-135 -55 -355 -55l-59 1l-297 -1123q-15 -54 -15 -89 q0 -54 38.5 -78t130.5 -30l-9 -41q-144 6 -428 6q-272 0 -401 -6l8 41q88 3 136.5 21t76 58t47.5 118l307 1152q-149 11 -233 11q-161 0 -234 -35q81 -11 132 -63.5t51 -135.5q0 -58 -26.5 -104.5t-72 -73t-100.5 -26.5q-57 0 -99 27t-63.5 72.5t-21.5 98.5z" />
<glyph unicode="U" horiz-adv-x="1438" d="M144 349q0 98 38 241l170 643q17 65 17 98q0 31 -13.5 47t-42.5 22.5t-82 8.5l13 41q120 -6 387 -6q214 0 358 6l-12 -41q-75 -3 -111.5 -16t-58 -48t-41.5 -112l-180 -678q-51 -191 -51 -309q0 -203 145 -203q215 0 338.5 139.5t189.5 390.5l125 476q45 170 45 232 q0 41 -15.5 66t-49.5 39t-94 23l12 41q80 -6 227 -6q108 0 172 6l-12 -41q-67 -14 -105 -44t-65 -91.5t-59 -183.5l-127 -494q-75 -285 -201 -434q-75 -88 -185 -139.5t-235 -51.5q-179 0 -292.5 52.5t-162.5 142.5q-42 78 -42 183z" />
<glyph unicode="V" horiz-adv-x="1393" d="M184 1409l11 41q116 -6 344 -6q236 0 356 6l-10 -41q-62 -3 -97 -13.5t-52 -37.5t-17 -78q0 -27 2 -43l93 -856l521 801q46 70 46 119q0 95 -185 108l10 41q58 -6 291 -6q90 0 154 6l-11 -41q-53 -16 -92 -40t-81 -71.5t-97 -132.5l-764 -1175q-37 3 -76 3q-38 0 -77 -3 l-162 1288q-8 66 -39.5 97.5t-67.5 33.5z" />
<glyph unicode="W" horiz-adv-x="2120" d="M176 1409l10 41q117 -6 344 -6q194 0 295 6l-10 -41q-39 -3 -60.5 -14t-32 -38t-10.5 -78q0 -27 1 -42l90 -831l338 547l-41 325q-7 66 -32.5 97.5t-53.5 33.5l10 41q111 -6 324 -6q236 0 356 6l-10 -41q-62 -3 -97 -13.5t-52 -37.5t-17 -78q0 -27 2 -43l88 -810l432 755 q42 74 42 122q0 51 -46 75t-135 30l10 41q59 -6 291 -6q89 0 153 6l-10 -41q-57 -17 -96.5 -39t-82 -70t-91.5 -135l-670 -1175h-153l-113 902l-551 -902h-154l-161 1288q-9 67 -40 98t-67 33z" />
<glyph unicode="X" horiz-adv-x="1575" d="M-92 209q0 71 29.5 124.5t80.5 83t113 29.5q77 0 122.5 -45.5t45.5 -126.5q0 -60 -27 -112.5t-75.5 -88.5t-110.5 -50q15 -17 53 -17q58 0 140 51q76 55 175.5 181t192.5 300l-88 707q-6 44 -25.5 63t-56.5 19q-83 0 -125 -121l-35 -104h-41l54 158q43 116 126.5 167.5 t207.5 51.5q107 0 174 -34t103.5 -104t49.5 -182l26 -213q68 146 148.5 269.5t151.5 189.5q92 74 186 74q66 0 116 -31.5t77.5 -85.5t27.5 -121q0 -71 -29.5 -124.5t-80.5 -83t-113 -29.5q-77 0 -122.5 45.5t-45.5 126.5q0 60 27 112.5t75.5 88.5t110.5 50q-15 17 -53 17 q-63 0 -135 -51q-70 -59 -159 -193t-174 -323l81 -662q12 -78 86 -78q84 0 121 107l35 104h41l-54 -158q-43 -117 -118 -168t-189 -51q-120 0 -192 36.5t-108 105.5t-50 178l-23 183q-73 -135 -161.5 -251.5t-171.5 -183.5q-94 -68 -193 -68q-66 0 -116 31.5t-77.5 85.5 t-27.5 121z" />
<glyph unicode="Y" horiz-adv-x="1589" d="M150 1102l43 131q43 132 134.5 189t211.5 57q152 0 234 -80t120.5 -227.5t69.5 -415.5q128 395 303 600q105 123 243 123q71 0 125.5 -29t84.5 -79t30 -111q0 -64 -30.5 -113.5t-82.5 -76t-116 -26.5q-84 0 -133.5 40.5t-49.5 111.5q0 60 28 109t76.5 80.5t108.5 41.5 q-15 17 -51 17q-33 0 -63.5 -11t-67.5 -38q-53 -39 -126.5 -146t-148.5 -272.5t-130 -367.5l-99 -392q-11 -46 -11 -73q0 -41 19 -62.5t55.5 -29.5t98.5 -11l-10 -41q-129 6 -418 6q-251 0 -371 -6l11 41q74 3 111 16t59 48.5t41 111.5l105 419q-18 167 -50 318.5t-78.5 250 t-103.5 98.5q-36 0 -57 -27t-36 -70l-34 -104h-45z" />
<glyph unicode="Z" horiz-adv-x="1356" d="M-61 17q0 28 38 62.5t115 63.5l576 566h-332l14 41h359l539 529q-214 -202 -425 -202q-82 0 -144.5 12.5t-145.5 37t-125 24.5q-60 0 -60 -47q0 -67 150 -96l-11 -39q-127 19 -213 77t-86 160q0 79 40.5 141t115 97t174.5 35q87 0 153.5 -20t200 -79t258.5 -59 q70 0 160 31q37 54 78 86.5t73 32.5q16 0 29 -11q12 -11 12 -27q0 -29 -38 -63t-115 -63l-567 -557h311l-16 -41h-336l-553 -543q218 207 432 207q82 0 144.5 -12.5t146 -37t125.5 -24.5q59 0 59 47q0 67 -149 96l8 39q127 -19 213 -77t86 -160q0 -79 -40.5 -141t-115 -97 t-174.5 -35q-86 0 -153 20t-200.5 79t-258.5 59q-70 0 -160 -31q-36 -53 -78 -86t-73 -33q-16 0 -29 11q-12 10 -12 27z" />
<glyph unicode="[" horiz-adv-x="827" d="M-43 -371l485 1952h553l-8 -39h-166l-469 -1874h166l-8 -39h-553z" />
<glyph unicode="\" horiz-adv-x="1004" d="M268 1479h64l467 -1508h-68z" />
<glyph unicode="]" horiz-adv-x="829" d="M-166 -371l8 39h166l469 1874h-166l8 39h553l-485 -1952h-553z" />
<glyph unicode="^" horiz-adv-x="1071" d="M115 647q159 69 300 186.5t228 247.5h37q21 -134 99 -249t208 -183l-12 -31q-236 28 -463 123q-149 -73 -389 -123z" />
<glyph unicode="_" horiz-adv-x="1366" d="M-119 -371l86 227h1055l-86 -227h-1055z" />
<glyph unicode="`" horiz-adv-x="457" d="M84 1622q0 33 14.5 61t42.5 46q31 20 70 20t74 -19t53 -49q21 -32 30 -66.5t24 -143.5t54 -230l-24 -14q-55 62 -100.5 105t-117 105t-98.5 107q-22 38 -22 78z" />
<glyph unicode="a" horiz-adv-x="1360" d="M-197 0l9 41q39 18 71 43.5t70.5 70t107.5 130.5l781 975q52 -4 77 -4q26 0 76 4l127 -1088q9 -68 37 -98.5t64 -32.5l-11 -41q-118 6 -346 6q-237 0 -348 -6l10 41q63 3 101 14.5t58 39t20 78.5q0 26 -2 40l-31 254h-416l-160 -199q-54 -67 -54 -113q0 -89 192 -114 l-9 -41q-182 6 -290 6q-70 0 -134 -6zM291 508h378l-50 409z" />
<glyph unicode="b" horiz-adv-x="1432" d="M-100 0l8 41q74 3 110.5 16t58.5 48t42 112l217 811q18 67 18 99q0 40 -30 57.5t-109 19.5l10 41q120 -6 367 -6q46 0 141 2t148 2q260 0 380.5 -59.5t120.5 -188.5q0 -86 -66 -157.5t-196 -117.5t-315 -58q181 -2 292.5 -41t159.5 -99t48 -131q0 -130 -84.5 -217.5 t-237.5 -130.5t-358 -43q-49 0 -163 3t-190 3q-249 0 -372 -6zM515 107q0 -60 48 -60q152 0 231.5 102t79.5 277q0 207 -167 207h-62l-110 -416q-20 -71 -20 -110zM655 668h23q92 0 157.5 51.5t98.5 138t33 189.5q0 157 -117 157q-23 0 -35.5 -6t-21 -22t-17.5 -50z" />
<glyph unicode="c" horiz-adv-x="1409" d="M45 401q0 207 120.5 410t340.5 333t502 130q111 0 180 -35.5t123 -97.5q15 -18 29 -18q38 0 83 122h45q-64 -189 -133 -471h-45q13 114 13 158q0 78 -33 145q-37 78 -111.5 119t-169.5 41q-135 0 -253.5 -135.5t-189.5 -341t-71 -400.5q0 -169 50 -260.5t137 -91.5 q94 0 194 42t174 118q54 56 93 126t91 198h46q-97 -355 -121 -492h-45q6 44 6 70q0 52 -26 52q-16 0 -42 -18q-93 -65 -182.5 -99t-206.5 -34q-186 0 -320.5 50t-206 146.5t-71.5 233.5z" />
<glyph unicode="d" horiz-adv-x="1655" d="M-92 0l6 41q70 3 105.5 16t57.5 48.5t42 111.5l219 811q18 70 18 96q0 42 -31.5 60.5t-109.5 19.5l6 41q156 -7 301 -7l72 1q177 6 303 6q363 0 535 -116.5t172 -352.5q0 -213 -128.5 -390.5t-364.5 -281.5t-544 -104q-35 0 -134.5 3t-192.5 3q-215 0 -332 -6zM514 99 q0 -36 21 -49t73 -13q178 0 308.5 110t198 282.5t67.5 356.5q0 135 -36.5 229.5t-104.5 143.5t-160 49q-40 0 -60.5 -12.5t-35.5 -48t-35 -115.5l-215 -819q-21 -82 -21 -114z" />
<glyph unicode="e" horiz-adv-x="1319" d="M-100 0l8 41q74 3 110.5 16t58.5 48t42 112l217 811q17 65 17 98q0 31 -14 47t-42.5 22.5t-81.5 8.5l10 41q236 -6 711 -6q295 0 424 6q-51 -131 -78 -241l2 7q1 0 -29 -134h-45q3 33 3 62q0 259 -250 259h-7q-72 0 -107 -11.5t-56 -46t-41 -112.5l-102 -381h30 q64 0 123 32t103 84.5t67 113.5h45q-26 -79 -43.5 -148.5t-26.5 -101.5q-23 -87 -53 -250h-45q0 54 -19 106t-63.5 87.5t-116.5 35.5h-12l-104 -389q-18 -70 -18 -100q0 -29 13.5 -44t41.5 -20.5t79 -5.5h27q101 0 181 35t146 114.5t121 213.5h45q-13 -35 -43 -148 q-32 -117 -53 -262q-139 6 -463 6q-475 0 -712 -6z" />
<glyph unicode="f" horiz-adv-x="1243" d="M-100 0l8 41q74 3 110.5 16t58.5 48t42 112l217 811q17 65 17 98q0 31 -14 47t-42.5 22.5t-81.5 8.5l10 41q236 -6 711 -6q295 0 424 6q-47 -122 -80 -254q-24 -96 -39 -176h-45q3 36 3 70q0 149 -62.5 231t-173.5 82h-7q-72 0 -107 -11.5t-56 -46t-41 -112.5l-102 -383 h50q95 0 171 54t118 155h45q-44 -133 -69 -250q-24 -102 -54 -270h-45q-11 270 -194 270h-33l-104 -387q-15 -57 -15 -91t17 -51.5t53.5 -24.5t105.5 -9l-8 -41q-138 6 -407 6q-258 0 -381 -6z" />
<glyph unicode="g" horiz-adv-x="1524" d="M45 399q0 200 118 404t337.5 337.5t507.5 133.5q210 0 356 -133q19 -19 36 -19q39 0 81 123h45q-65 -186 -131 -471h-45q10 88 10 154q0 49 -6 84t-23 65q-92 160 -336 160q-177 0 -297.5 -154t-178.5 -367t-58 -384q0 -160 60 -240t173 -80q57 0 91.5 16t54.5 51.5 t32 96.5l37 137q13 52 13 82q0 58 -39 84.5t-127 30.5l8 41q138 -6 391 -6q225 0 336 6l-8 -41q-51 -3 -76 -15.5t-41.5 -47t-38.5 -113.5l-90 -334h-41q3 17 3 31q0 65 -54 65q-35 0 -74 -11t-100 -38q-105 -45 -172.5 -60.5t-145.5 -15.5q-195 0 -331 50t-206.5 145.5 t-70.5 232.5z" />
<glyph unicode="h" horiz-adv-x="1729" d="M-98 0l10 41q71 3 107 16t58 48.5t42 111.5l215 811q17 65 17 98q0 31 -14 47t-42.5 22.5t-81.5 8.5l10 41q120 -6 383 -6q220 0 365 6l-10 -41q-76 -3 -112.5 -16t-57.5 -48t-41 -112l-101 -381h452l101 381q18 65 18 99q0 30 -14 46t-43 22.5t-82 8.5l11 41 q123 -6 360 -6q261 0 387 6l-10 -41q-75 -3 -111.5 -16t-58 -48t-41.5 -112l-215 -811q-18 -70 -18 -100t13.5 -45.5t42.5 -22t83 -8.5l-8 -41q-123 6 -386 6q-236 0 -362 -6l8 41q74 3 110.5 16t58.5 48t42 112l103 389h-452l-103 -389q-18 -70 -18 -100t13.5 -45.5 t42.5 -22t82 -8.5l-8 -41q-126 6 -362 6q-257 0 -383 -6z" />
<glyph unicode="i" horiz-adv-x="860" d="M-98 0l10 41q71 3 107 16t58 48.5t42 111.5l215 811q17 65 17 98q0 31 -14 47t-42.5 22.5t-81.5 8.5l10 41q114 -6 363 -6q230 0 385 6l-10 -41q-76 -3 -112.5 -16t-57.5 -48t-41 -112l-215 -811q-18 -70 -18 -100t13.5 -45.5t42.5 -22t82 -8.5l-8 -41q-132 6 -383 6 q-242 0 -362 -6z" />
<glyph unicode="j" horiz-adv-x="1477" d="M-25 -199q0 77 56.5 125.5t158.5 48.5q91 0 148 -39t57 -112q0 -114 -133 -170q19 -4 60 -4q58 0 97.5 31t67 87.5t54.5 147.5l139 463q16 55 37 104h-260l6 41h272q64 137 160.5 234.5t196 161t315.5 186.5q-131 -35 -268 -99.5t-208.5 -92t-160.5 -27.5q-52 0 -100 14 t-130.5 47t-125.5 33q-51 0 -84 -26t-33 -78q0 -147 283 -164l-5 -37q-206 12 -325 96t-119 229q0 132 82.5 209.5t243.5 77.5q145 0 271.5 -66t203 -99t201.5 -33q79 0 172 17.5t163 53.5q79 119 129 119q17 0 29 -12q11 -11 11 -23q0 -46 -150 -106q-88 -71 -149 -158 t-105.5 -193t-92.5 -264h206l-7 -41h-211l-4 -12l-143 -481q-32 -108 -115 -193t-209 -133.5t-282 -48.5q-196 0 -298 42t-102 144z" />
<glyph unicode="k" horiz-adv-x="1546" d="M-98 0l10 41q71 3 107 16t58 48.5t42 111.5l215 811q17 65 17 98q0 31 -14 47t-42.5 22.5t-81.5 8.5l10 41q120 -6 383 -6q220 0 365 6l-10 -41q-76 -3 -112.5 -16t-57.5 -48t-41 -112l-215 -811q-18 -70 -18 -100t13.5 -45.5t42.5 -22t82 -8.5l-8 -41q-126 6 -362 6 q-257 0 -383 -6zM678 647q0 39 50 39q37 0 100 -20q110 12 159.5 94.5t91 231.5t76.5 194q40 50 84 69t107 19q107 0 172 -56t65 -157q0 -69 -29 -124.5t-80 -86.5t-114 -31q-85 0 -133.5 42.5t-48.5 123.5q0 53 24 105.5t66.5 90.5t95.5 50q-12 8 -41 8q-45 0 -77 -18.5 t-60 -59.5q-27 -39 -66 -179t-87 -224.5t-147 -106.5q112 -13 182.5 -33.5t111 -63.5t40.5 -118q0 -20 -3 -43l-27 -180q-1 -7 -1 -18q0 -50 48 -50q30 0 51 22.5t39 76.5l35 104h41l-53 -158q-40 -118 -117 -168.5t-193 -50.5q-255 0 -255 215q0 34 8 82l38 211q9 44 9 80 q0 45 -23 66q-56 -16 -89 -16q-50 0 -50 38z" />
<glyph unicode="l" horiz-adv-x="1270" d="M-102 0l8 41q74 3 110.5 16t58.5 48t42 112l221 811q17 65 17 98q0 31 -14 47t-42.5 22.5t-81.5 8.5l10 41q120 -6 387 -6q215 0 359 6l-10 -41q-75 -3 -111.5 -16t-58 -47.5t-41.5 -112.5l-222 -811q-14 -65 -14 -99q0 -43 24.5 -57t86.5 -14h57q75 0 158.5 38.5 t162.5 124.5t134 220h45q-21 -54 -49 -168q-32 -108 -54 -262q-139 6 -463 6q-483 0 -720 -6z" />
<glyph unicode="m" horiz-adv-x="1837" d="M-98 0l8 41q68 3 109.5 24.5t64 60t39.5 101.5l213 801q17 65 17 98q0 31 -14 47t-42.5 22.5t-81.5 8.5l10 41q65 -6 183 -6q168 0 294 6l151 -882l617 876h99q224 0 379 6l-11 -41q-75 -3 -111.5 -16t-58 -48t-41.5 -112l-215 -811q-17 -65 -17 -98q0 -31 13.5 -47 t42.5 -22.5t82 -8.5l-8 -41q-150 6 -377 6q-252 0 -368 -6l8 41q75 3 111 16t57.5 48t42.5 112l180 667l-631 -894q-32 4 -73 4t-74 -4l-155 905l-177 -668q-13 -47 -13 -77q0 -53 43 -79.5t150 -29.5l-8 -41q-73 6 -244 6q-127 0 -194 -6z" />
<glyph unicode="n" horiz-adv-x="1896" d="M-168 68q0 64 30.5 113t82.5 75.5t116 26.5q84 0 133.5 -40.5t49.5 -111.5q0 -60 -27.5 -109t-76 -80.5t-109.5 -41.5q14 -15 51 -15q49 0 95 30.5t81 82.5q77 114 162.5 394.5t185.5 714.5q3 40 -10.5 59.5t-46 27t-100.5 10.5l10 41q65 -6 182 -6q151 0 268 6l420 -708 q151 516 270 671q98 131 222 131q71 0 125.5 -29t84 -79t29.5 -111q0 -64 -30.5 -113t-82.5 -75.5t-116 -26.5q-84 0 -133 40.5t-49 111.5q0 60 27.5 109t76 80.5t109.5 41.5q-19 17 -52 17q-54 0 -94 -29.5t-80 -83.5q-181 -256 -411 -1202h-45l-572 936 q-192 -793 -317 -949q-49 -60 -99.5 -94.5t-119.5 -34.5q-71 0 -125.5 29t-84.5 79t-30 112z" />
<glyph unicode="o" horiz-adv-x="1661" d="M53 465q0 185 120.5 374t335 312t482.5 123q188 0 329 -54.5t219.5 -165t78.5 -274.5q0 -185 -120.5 -374t-335 -312t-482.5 -123q-188 0 -329 54.5t-219.5 165t-78.5 274.5zM498 436q0 -221 53.5 -324.5t146.5 -103.5q133 0 242.5 116.5t171.5 302t62 382.5 q0 221 -54 324.5t-147 103.5q-133 0 -242 -116.5t-171 -302t-62 -382.5z" />
<glyph unicode="p" horiz-adv-x="1376" d="M-98 0l8 41q74 3 110.5 16t58.5 48t42 112l213 811q18 72 18 97q0 39 -30 57.5t-107 21.5l10 41q120 -6 348 -6q83 0 171 2t139 2q547 0 547 -276q0 -125 -103.5 -229t-291 -167.5t-428.5 -69.5l-77 -284q-15 -62 -15 -89q0 -44 30.5 -63t109.5 -24l-8 -41q-141 6 -364 6 q-258 0 -381 -6zM618 543q134 11 218.5 85.5t122.5 183.5t38 230q0 89 -23.5 125.5t-84.5 36.5q-42 0 -66 -16.5t-39 -52t-34 -107.5z" />
<glyph unicode="q" horiz-adv-x="1761" d="M-66 6q0 74 41 134t112 94t159 34q76 0 155 -26.5t153.5 -68.5t170.5 -105q246 131 391.5 318t145.5 425q0 204 -67.5 315t-193.5 111q-131 0 -232.5 -96t-157.5 -246.5t-56 -306.5q0 -73 14 -122.5t52.5 -77.5t107.5 -28q88 0 163 35.5t125.5 97t67.5 136.5q9 32 9 57 q-20 -74 -78.5 -108.5t-122.5 -34.5q-54 0 -95 24.5t-63 68t-22 97.5q0 65 31 118t83.5 83.5t114.5 30.5q93 0 146 -66.5t53 -177.5q0 -128 -70 -225t-194 -150t-283 -53q-135 0 -242.5 42.5t-169 125.5t-61.5 201q0 169 129.5 309.5t343.5 221.5t457 81q185 0 333 -51.5 t232 -144.5t84 -214q0 -126 -129.5 -279t-338.5 -300t-442 -259q104 -69 179.5 -112t157 -71.5t159.5 -28.5q179 0 242 108q-70 -67 -174 -67q-87 0 -143 48t-56 134q0 60 29 106.5t80.5 72.5t117.5 26q95 0 154 -53t59 -154q0 -102 -74 -199.5t-211.5 -159t-316.5 -61.5 q-129 0 -234.5 37t-183.5 90.5t-169 132.5q-152 -43 -259 -43q-98 0 -155.5 43t-57.5 131zM-18 -18q0 -52 46.5 -83.5t131.5 -31.5q91 0 212 38q-60 51 -103 82.5t-89.5 51.5t-95.5 20q-102 0 -102 -77z" />
<glyph unicode="r" horiz-adv-x="1477" d="M-100 0l8 41q74 3 110 15.5t58 47.5t43 113l217 811q17 63 17 92q0 41 -30.5 60.5t-107.5 23.5l10 41q120 -6 353 -6q90 0 205 2t167 2q244 0 350.5 -62.5t106.5 -189.5q0 -105 -66 -187t-190.5 -135t-295.5 -72q127 -17 203.5 -47t112.5 -84q32 -48 32 -121 q0 -10 -1 -21l-6 -109q-1 -10 -1 -28q0 -78 40 -78q64 0 106 110l11 29h47l-8 -27q-83 -250 -351 -250q-138 0 -201 62q-58 57 -58 148q0 9 1 18l11 155q1 15 1 42q0 90 -34.5 135.5t-118.5 54.5h-10l-99 -369q-14 -53 -14 -86q0 -45 30.5 -65t104.5 -25l-8 -41 q-141 6 -364 6q-258 0 -381 -6zM642 627h36q87 0 160 51.5t116 143t43 206.5q0 86 -27.5 131t-88.5 45q-35 0 -57.5 -16t-39 -53.5t-34.5 -106.5z" />
<glyph unicode="s" horiz-adv-x="1305" d="M-72 -14q68 162 140 491h41q-19 -99 -19 -151q0 -142 93.5 -225t277.5 -83q94 0 160.5 45t66.5 138q0 74 -51 146.5t-176 176.5q-134 112 -193 199.5t-59 187.5q0 123 83.5 204.5t218 120t288.5 38.5q188 0 315 -74q11 -6 33 -19.5t40 -21.5t30 -8q19 0 33.5 25t35.5 84 h41q-78 -195 -121 -418h-41q13 56 13 114q0 78 -42.5 141t-116 99.5t-161.5 36.5q-75 0 -126.5 -23.5t-77 -62.5t-25.5 -86q0 -51 20 -94t72.5 -98.5t157.5 -145.5q115 -99 168.5 -151.5t83.5 -109t30 -126.5q0 -123 -90 -205t-237 -121t-320 -39q-116 0 -198 20t-175 68 q-65 37 -90 37q-23 0 -39.5 -24t-42.5 -86h-41z" />
<glyph unicode="t" horiz-adv-x="1454" d="M115 954q0 63 35.5 126t109.5 108q109 65 297 65q76 0 159.5 -7.5t268.5 -28.5t289 -21q142 0 199 21q-45 29 -74 80t-29 112q0 57 24.5 102.5t70 72t106.5 26.5q60 0 106.5 -24.5t71.5 -65t25 -86.5q0 -60 -29.5 -112t-104.5 -97q-113 -70 -383 -70q-31 0 -68 2 l-263 -919q-19 -65 -19 -99q0 -35 17 -55t54 -30t101 -13l-8 -41q-144 6 -428 6q-272 0 -401 -6l8 41q88 3 135.5 20.5t74.5 57.5t50 119l276 962q-151 17 -237 17q-160 0 -238 -56q82 -11 134.5 -64t52.5 -134q0 -58 -26.5 -105t-72 -73.5t-100.5 -26.5q-57 0 -99 27.5 t-63.5 72.5t-21.5 96z" />
<glyph unicode="u" horiz-adv-x="1448" d="M127 282q0 99 55 308l117 438q17 65 17 98q0 31 -14 47t-42.5 22.5t-81.5 8.5l12 41q120 -6 388 -6q214 0 358 6l-12 -41q-75 -3 -111.5 -16t-58 -47.5t-41.5 -112.5l-127 -473q-54 -200 -54 -317q0 -195 148 -195q215 0 338.5 139.5t189.5 390.5l72 271q47 173 47 233 q0 41 -16 66t-50 39t-94 22l13 41q79 -6 227 -6q121 0 192 6l-12 -41q-76 -13 -118.5 -43.5t-70.5 -92t-61 -183.5l-75 -289q-75 -285 -201 -434q-163 -191 -471 -191q-283 0 -387 111q-40 41 -58 88.5t-18 111.5z" />
<glyph unicode="v" horiz-adv-x="1360" d="M141 1204l11 41q115 -6 344 -6q228 0 348 6l-10 -41q-62 -3 -97 -13t-52.5 -35.5t-17.5 -74.5q0 -22 3 -49l86 -699l514 644q54 68 54 114q0 88 -191 113l8 41q182 -6 291 -6q69 0 133 6l-9 -41q-39 -18 -71 -43.5t-70.5 -69.5t-107.5 -130l-770 -971q-39 3 -77 3t-77 -3 l-135 1083q-8 66 -39.5 97.5t-67.5 33.5z" />
<glyph unicode="w" horiz-adv-x="1931" d="M123 1204l8 41q138 -6 303 -6q208 0 305 6l-8 -41q-43 -6 -61 -28.5t-18 -61.5q0 -32 10 -82l107 -626l211 357l-50 310q-15 127 -72 131l8 41q120 -6 285 -6q248 0 365 6l-9 -41q-62 -3 -96 -12t-50 -30.5t-16 -62.5q0 -31 7 -67l97 -655l363 600q49 81 49 123 q0 40 -42 66t-138 38l9 41q180 -6 290 -6q70 0 134 6l-9 -41q-48 -22 -82 -44.5t-76 -69.5t-92 -129l-593 -971q-33 4 -77 4q-43 0 -79 -4l-116 711l-423 -711q-32 4 -76 4q-43 0 -79 -4l-195 1083q-24 131 -94 131z" />
<glyph unicode="x" horiz-adv-x="1548" d="M-76 209q0 71 30 124.5t81 83t112 29.5q78 0 123 -45.5t45 -126.5q0 -60 -27 -112.5t-75.5 -88.5t-110.5 -50q17 -17 54 -17q64 0 139 51q67 46 153 149.5t170 248.5l-53 473q-10 84 -37.5 128t-83.5 44q-48 0 -77 -27.5t-48 -79.5l-32 -96h-41l43 129q42 128 121.5 188 t199.5 60q175 0 254.5 -84t96.5 -236l10 -91q125 240 239 339q85 72 193 72q66 0 116 -31.5t77.5 -85.5t27.5 -121q0 -71 -29.5 -124.5t-80.5 -83t-113 -29.5q-78 0 -123 45.5t-45 126.5q0 92 59 161t154 91q-16 16 -53 16q-73 0 -136 -51q-59 -46 -131.5 -149t-146.5 -249 l53 -473q10 -87 37 -129.5t84 -42.5q50 0 78.5 26t44.5 73l35 104h41l-54 -158q-35 -104 -109.5 -161.5t-187.5 -57.5q-183 0 -265.5 82.5t-98.5 237.5l-11 97q-67 -111 -142.5 -203t-145.5 -146q-85 -68 -193 -68q-66 0 -116 31.5t-77.5 85.5t-27.5 121z" />
<glyph unicode="y" horiz-adv-x="1462" d="M117 897l51 150q37 108 114.5 167.5t196.5 59.5t190.5 -43.5t113 -140t71.5 -271.5l15 -83q48 127 108.5 234t109.5 169q51 63 115 99t131 36q64 0 114 -31.5t77.5 -86t27.5 -120.5q0 -71 -29.5 -124.5t-80.5 -83t-113 -29.5q-77 0 -122.5 45.5t-45.5 126.5 q0 61 26.5 113.5t75 89t111.5 49.5q-17 12 -53 12q-87 0 -168 -84q-143 -147 -281 -518l-106 -416q-17 -66 -17 -99q0 -30 13.5 -46t42.5 -22.5t82 -8.5l-10 -41q-129 6 -379 6q-249 0 -369 -6l10 41q76 3 113.5 16.5t58 48.5t39.5 111l81 313q-23 180 -47 294.5 t-54.5 174.5t-71.5 60t-63 -68l-33 -94h-45z" />
<glyph unicode="z" horiz-adv-x="1356" d="M-91 19q0 35 51.5 69t102.5 55l571 463h-327l15 41h363l566 459q-81 -37 -188.5 -106t-170 -98.5t-138.5 -29.5q-74 0 -130 12t-131 37t-114 25q-60 0 -60 -47q0 -67 150 -96l-10 -39q-127 19 -213 76.5t-86 160.5q0 79 40.5 141t115 97t173.5 35q87 0 154 -20t200.5 -79 t258.5 -59q69 0 160 31q26 37 69 78t80 41q21 0 35 -15q12 -12 12 -27q0 -23 -26.5 -47.5t-64 -45t-67.5 -29.5l-561 -455h305l-16 -41h-339l-576 -467q80 37 187 106t170 98.5t142 29.5q74 0 130 -12t131 -37t114 -25q60 0 60 47q0 67 -150 96l8 39q127 -19 213 -76.5 t86 -160.5q0 -79 -40.5 -141t-115 -97t-174.5 -35q-86 0 -153 20t-200.5 79t-258.5 59q-69 0 -160 -31q-11 -19 -37 -47.5t-56.5 -50.5t-56.5 -22q-22 0 -36 18q-7 11 -7 23z" />
<glyph unicode="{" horiz-adv-x="815" d="M59 586l6 37h11q66 5 110.5 49.5t83.5 148.5t86 300q47 195 128 299t203.5 143t317.5 39l-10 -39q-72 -1 -110 -28.5t-73 -117t-87 -296.5q-46 -183 -121.5 -286t-188.5 -153.5t-294 -76.5q142 -28 223 -62.5t119 -90t38 -144.5q0 -83 -34 -219q-63 -253 -60 -332 q0 -41 12.5 -63t37.5 -30.5t67 -9.5l-10 -39q-236 -3 -338 44t-113 145t35 285q68 275 68 376q-1 62 -24.5 90t-72.5 31h-10z" />
<glyph unicode="|" horiz-adv-x="825" d="M309 -399v2156h246v-2156h-246z" />
<glyph unicode="}" horiz-adv-x="813" d="M-188 -385l10 39q72 1 110 28.5t73 117t87 296.5q46 183 121.5 286t188.5 153.5t294 76.5q-142 28 -223 62.5t-119 90t-38 144.5q0 83 34 219q63 253 60 332q0 41 -12.5 63t-37.5 30.5t-67 9.5l10 39q236 3 338 -44t113 -145t-35 -285q-68 -275 -68 -376q1 -62 24.5 -90 t72.5 -31h10l-6 -37h-11q-66 -5 -110.5 -49.5t-83.5 -148.5t-86 -300q-47 -195 -128 -299t-203.5 -143t-317.5 -39z" />
<glyph unicode="~" horiz-adv-x="1317" d="M74 455q43 116 113 202.5t159.5 133.5t188.5 47q70 0 125 -21t160.5 -80t195.5 -59q135 0 211 119l28 -11q-43 -116 -113 -202.5t-159 -133.5t-188 -47q-71 0 -126 21t-160.5 80t-195.5 59q-135 0 -211 -119z" />
<glyph unicode="&#xa2;" d="M53 401q0 165 78.5 331.5t225.5 298.5t343 195l60 224h45l-57 -210q129 34 268 34q111 0 180 -35.5t123 -97.5q15 -18 29 -18q38 0 83 122h45q-64 -189 -133 -471h-45q13 114 13 158q0 77 -33 145q-37 78 -111.5 119t-169.5 41q-82 0 -159 -52t-143 -144l-208 -772 q13 -127 60.5 -194t122.5 -67q94 0 194 42t174 118q54 56 93 126t91 198h46q-97 -355 -121 -492h-45q6 43 6 70q0 52 -26 52q-17 0 -42 -18q-93 -65 -182.5 -99t-206.5 -34q-131 0 -237 25l-99 -367h-45l102 378q-154 46 -236.5 146.5t-82.5 247.5zM485 429l128 473 q-53 -107 -86.5 -230t-41.5 -243z" />
<glyph unicode="&#xa3;" horiz-adv-x="1442" d="M-63 -8q0 26 21.5 56.5t67 56.5t113.5 36q43 84 77 169.5t69 217.5l21 80h-200l13 41h198l43 164h-198l12 41h197l12 45q72 277 256.5 442.5t484.5 165.5q77 0 136 -29t91.5 -79t32.5 -111q0 -76 -29 -134t-80 -90t-114 -32q-85 0 -133.5 42.5t-48.5 123.5q0 64 25.5 118 t71.5 90t106 48q-25 23 -67 23q-85 0 -139.5 -56t-88.5 -186l-100 -381h278l-12 -41h-277q-29 -92 -75 -164h309l-13 -41h-325q-63 -80 -180 -164.5t-185.5 -143.5t-126.5 -161q229 234 459 234q82 0 144.5 -12.5t146 -37t125.5 -24.5q59 0 59 47q0 67 -149 96l8 39 q127 -19 213 -77t86 -160q0 -79 -40.5 -141t-115 -97t-174.5 -35q-86 0 -153 20t-200.5 79t-258.5 59q-97 0 -164 -23q-33 -68 -88 -101.5t-115 -33.5q-14 0 -20 4.5t-6 16.5z" />
<glyph unicode="&#xa5;" horiz-adv-x="1690" d="M199 1102l43 131q43 132 134.5 189t211.5 57q152 0 234 -80t120.5 -227.5t69.5 -415.5q128 395 303 600q105 123 243 123q71 0 125.5 -29t84.5 -79t30 -111q0 -64 -30.5 -113.5t-82.5 -76t-116 -26.5q-84 0 -133.5 40.5t-49.5 111.5q0 60 28 109t76.5 80.5t108.5 41.5 q-15 17 -51 17q-33 0 -63.5 -11t-67.5 -38q-53 -39 -126.5 -146t-148.5 -272.5t-130 -367.5v-1h264l-10 -41h-265l-31 -123h261l-10 -41h-261l-47 -186q-11 -46 -11 -73q0 -41 19 -62.5t55.5 -29.5t98.5 -11l-10 -41q-129 6 -418 6q-251 0 -371 -6l11 41q74 3 111 16 t59 48.5t41 111.5l47 186h-287l10 41h287l31 123h-283l10 41h283l7 28q-29 269 -89 468t-143 199q-36 0 -57 -27t-36 -70l-34 -104h-45z" />
<glyph unicode="&#xa8;" horiz-adv-x="799" d="M-23 1380q0 68 28 113t74 66.5t101 21.5q79 0 116.5 -42.5t37.5 -117.5q0 -67 -29 -111t-76 -64.5t-100 -20.5q-78 0 -115 41t-37 114zM465 1380q0 100 58.5 150.5t144.5 50.5q78 0 115.5 -42.5t37.5 -117.5q0 -67 -29 -111t-75.5 -64.5t-100.5 -20.5q-78 0 -114.5 41 t-36.5 114z" />
<glyph unicode="&#xa9;" horiz-adv-x="1847" d="M158 786q0 222 109.5 409.5t296.5 297t409 109.5q221 0 408.5 -109.5t297 -297t109.5 -409.5q0 -221 -109.5 -408.5t-297 -297t-408.5 -109.5q-222 0 -409 109.5t-296.5 297t-109.5 408.5zM240 786q0 -203 98.5 -375t266.5 -273t368 -101q199 0 367.5 101t267 273 t98.5 375q0 204 -98.5 376t-267 273t-367.5 101q-200 0 -368 -101t-266.5 -273t-98.5 -376zM500 786q0 190 68 316t186 186t272 60q97 0 186.5 -28.5t148 -90t58.5 -156.5q0 -55 -25.5 -100.5t-70 -72t-100.5 -26.5q-89 0 -139 51t-50 134q0 74 48.5 129.5t119.5 75.5 q-19 13 -51 21.5t-66 8.5q-72 0 -115.5 -41t-65 -145t-21.5 -293q0 -159 37 -254t94 -133.5t125 -38.5q148 0 247 199l35 -13q-28 -90 -83.5 -169t-142.5 -129t-202 -50q-223 0 -358 133.5t-135 425.5z" />
<glyph unicode="&#xab;" horiz-adv-x="1294" d="M31 510l10 41q188 110 363 239.5t382 301.5h37q-40 -86 -108.5 -198t-143.5 -211.5t-131 -152.5q32 -52 61 -152t46 -211t16 -196h-37q-119 164 -237 295.5t-258 243.5zM553 510l10 41q162 92 311.5 201t333.5 258h37q-43 -108 -138 -258t-163 -222q22 -45 42.5 -130.5 t31.5 -180t8 -166.5h-37q-118 150 -217.5 257.5t-218.5 199.5z" />
<glyph unicode="&#xad;" d="M109 455l55 202h739l-55 -202h-739z" />
<glyph unicode="&#xae;" horiz-adv-x="1384" d="M236 1030q0 155 77 286.5t208 208.5t286 77t286 -77t208 -208.5t77 -286.5t-77 -286t-208 -208t-286 -77t-286 77t-208 208t-77 286zM322 1030q0 -136 65 -252.5t176.5 -185t243.5 -68.5t243.5 68.5t176.5 185t65 252.5q0 137 -65 253t-176 184.5t-244 68.5t-244 -68.5 t-176 -184.5t-65 -253zM512 721v31q21 2 30.5 7.5t13 20.5t3.5 47v449q0 33 -3.5 48.5t-13 21.5t-30.5 8v30q33 -2 147 -2q68 0 112 1t65 1q138 0 198 -40.5t60 -120.5q0 -51 -50 -97.5t-168 -65.5q69 -6 109 -20t58.5 -37.5t25.5 -62.5l35 -145q5 -35 26 -35q12 0 23 8 l12 -23q-41 -34 -118 -34q-145 0 -160 92l-27 147q-6 33 -14 50t-26 27t-54 14v-214q0 -32 3.5 -47t13 -20.5t30.5 -7.5v-31q-29 0 -65.5 1t-79.5 1q-52 0 -91.5 -1t-64.5 -1zM766 1077h8q56 0 86.5 36t30.5 104q0 66 -22.5 101.5t-65.5 35.5q-21 0 -29 -11t-8 -40v-226z " />
<glyph unicode="&#xb4;" horiz-adv-x="457" d="M260 1247q60 95 113 202.5t80.5 156.5t68.5 90q26 26 61 42t70 16q55 0 95 -40q34 -34 34 -77q0 -61 -67 -130q-32 -32 -74 -59t-154.5 -91.5t-205.5 -129.5z" />
<glyph unicode="&#xb8;" horiz-adv-x="467" d="M-154 -348l13 33q60 -21 125 -21q59 0 113.5 18t54.5 68q0 22 -16 34.5t-42 12.5q-35 0 -63 -14l172 217h59l-102 -137q74 24 127 24q65 0 106 -22t41 -66q0 -64 -56 -105t-145 -60t-190 -19q-110 0 -197 37z" />
<glyph unicode="&#xbb;" horiz-adv-x="1292" d="M12 53q44 108 137.5 257t159.5 220q-21 46 -41 132t-31 181.5t-8 166.5h37q120 -153 218.5 -260.5t217.5 -198.5l-10 -41q-163 -93 -315 -203t-328 -254h-37zM432 -29q40 85 108.5 196.5t142.5 211t130 151.5q-31 53 -59.5 153.5t-45.5 212.5t-16 196h37 q121 -167 239 -298.5t259 -242.5l-10 -41q-191 -110 -366 -238.5t-382 -300.5h-37z" />
<glyph unicode="&#x2c6;" horiz-adv-x="823" d="M55 1270q158 69 297 186t226 248h36q33 -156 88.5 -257t155.5 -177l-8 -29q-242 43 -406 111q-154 -65 -378 -111z" />
<glyph unicode="&#x2da;" horiz-adv-x="535" d="M27 1409q0 64 35 117t95.5 83.5t133.5 30.5q61 0 110.5 -22.5t78 -64t28.5 -95.5q0 -63 -38 -116.5t-100.5 -85t-133.5 -31.5q-60 0 -107.5 22t-74.5 64t-27 98zM82 1409q0 -44 23 -76t61 -48.5t80 -16.5q53 0 101 25t78 68t30 93q0 46 -25 78.5t-64 48.5t-81 16 q-54 0 -101 -26.5t-74.5 -70t-27.5 -91.5z" />
<glyph unicode="&#x2dc;" horiz-adv-x="842" d="M162 1300q57 169 150.5 251.5t197.5 82.5q59 0 98 -21.5t98 -74.5t113 -53q42 0 77.5 28t70.5 91l37 -11q-57 -168 -151 -250.5t-198 -82.5q-59 0 -97.5 21.5t-98 74.5t-113.5 53q-42 0 -77 -28t-70 -91z" />
<glyph unicode="&#x401;" horiz-adv-x="1305" d="M-98 0l8 41q74 3 110.5 16t58.5 48t42 112l270 1016q17 65 17 98q0 31 -13.5 47t-42.5 22.5t-82 8.5l11 41q235 -6 710 -6q295 0 424 6q-50 -129 -78 -242q-11 -46 -26 -127h-45q1 119 -26.5 190t-82 101.5t-139.5 30.5h-6q-71 0 -106.5 -12t-57 -46.5t-41.5 -111.5 l-128 -483h36q64 0 123 31.5t103 84t67 113.5h45q-26 -79 -43.5 -148.5t-26.5 -101.5q-27 -102 -53 -250h-45q0 54 -19 106.5t-63.5 88t-116.5 35.5h-18l-131 -492q-18 -70 -18 -100q0 -29 13.5 -44t41.5 -20.5t79 -5.5h27q100 0 175.5 34.5t140.5 113t132 215.5h46 q-14 -36 -44 -148q-32 -117 -53 -262q-139 6 -463 6q-475 0 -712 -6zM522 1716q0 68 28 113t74 66.5t101 21.5q78 0 116 -43t38 -117q0 -67 -29 -111t-76 -64.5t-100 -20.5q-78 0 -115 41t-37 114zM1051 1716q0 68 28 113t73.5 66.5t100.5 21.5q78 0 116 -43t38 -117 q0 -67 -29 -111t-75.5 -64.5t-100.5 -20.5q-78 0 -114.5 41t-36.5 114z" />
<glyph unicode="&#x402;" horiz-adv-x="2071" d="M162 1161q0 65 34.5 126.5t114.5 101.5q101 49 275 49q90 0 182 -5t272.5 -18.5t274.5 -13.5q101 0 182 18q-35 33 -57.5 82t-22.5 109q0 62 26 108t72 71.5t105 25.5t104.5 -24t71 -66t25.5 -95q0 -68 -42 -121.5t-120 -87.5q-134 -61 -354 -61q-48 0 -111 3l-169 -642 q100 60 228.5 95.5t274.5 35.5q221 0 351 -87.5t130 -258.5q0 -150 -98 -273t-257 -192.5t-333 -69.5q-87 0 -161.5 24.5t-121.5 77t-47 134.5q0 72 39 131t103 93t137 34t112 -35t39 -102q0 -68 -38 -125t-99.5 -96.5t-130.5 -57.5q61 -26 125 -26q89 0 156 60t103 160 t36 216q0 155 -67.5 229t-205.5 74q-78 0 -155.5 -22.5t-130.5 -59.5l-185 -703q-119 29 -327 29q-139 0 -289 -6l10 41q84 2 134 22.5t77.5 60.5t44.5 107l310 1162q-117 8 -191 8q-163 0 -236 -35q81 -11 132 -63.5t51 -135.5q0 -58 -26.5 -104.5t-72 -73t-100.5 -26.5 q-57 0 -99 27t-63.5 72.5t-21.5 98.5z" />
<glyph unicode="&#x403;" horiz-adv-x="1178" d="M-98 0l8 41q74 3 110.5 16t58.5 48t42 112l270 1016q17 65 17 98q0 31 -13.5 47t-42.5 22.5t-82 8.5l11 41q127 -6 362 -6h348q266 0 383 6q-41 -108 -78 -242q-30 -111 -47 -188h-45q3 39 3 74q0 166 -60 237.5t-170 71.5h-4q-46 0 -74.5 -12.5t-50.5 -49t-41 -108.5 l-270 -1016q-15 -57 -15 -91t17 -51.5t53.5 -24.5t105.5 -9l-8 -41q-138 6 -407 6q-258 0 -381 -6zM649 1606q84 74 166 162t122.5 127t92.5 67q43 24 94 24q88 0 127 -71q15 -29 15 -55q0 -75 -107 -136q-39 -21 -87 -35t-174 -43.5t-235 -64.5z" />
<glyph unicode="&#x404;" horiz-adv-x="1468" d="M76 496q0 246 135.5 473t373.5 368.5t529 141.5q112 0 181 -35.5t122 -97.5q15 -18 30 -18q38 0 83 122h43q-68 -177 -131 -471h-45q20 118 20 177q0 90 -35 149q-38 65 -92 90.5t-133 25.5q-144 0 -272.5 -107.5t-215.5 -291.5t-113 -404q65 124 117.5 197.5t105 109.5 t114.5 36q48 0 86.5 -19t115 -74t144.5 -55q41 0 79 20.5t79 69.5l26 -18q-100 -192 -186.5 -283.5t-187.5 -91.5q-50 0 -91.5 18.5t-126 73.5t-157.5 55q-37 0 -64 -19t-59 -76q-4 -52 -4 -105q0 -207 70.5 -307.5t197.5 -100.5q69 0 141.5 31.5t124.5 87.5q54 58 94 129 t91 195h45q-97 -355 -121 -492h-45q6 44 6 70q0 52 -26 52q-16 0 -42 -18q-192 -133 -409 -133q-305 0 -451.5 136t-146.5 389z" />
<glyph unicode="&#x405;" horiz-adv-x="1247" d="M-72 -14q68 162 140 491h41q-19 -53 -19 -141q0 -157 87 -237.5t247 -80.5q133 0 186.5 50t53.5 139q0 116 -52.5 211t-206 288t-153.5 357q0 135 82.5 229t207 140.5t249.5 46.5q87 0 156.5 -16t103.5 -31t102 -48q11 -5 34.5 -16.5t33.5 -11.5q16 0 31.5 25.5 t35.5 82.5h41q-78 -190 -121 -417h-41q13 55 13 112q0 124 -78.5 194t-216.5 70q-97 0 -159 -48t-62 -150q0 -135 150 -309t228 -282t78 -249q0 -139 -95 -232.5t-233 -137.5t-268 -44q-104 0 -170.5 10t-114 29t-112.5 56q-54 30 -70 30q-19 0 -31.5 -9t-24.5 -31.5 t-32 -69.5h-41z" />
<glyph unicode="&#x406;" horiz-adv-x="864" d="M-96 0l10 41q71 3 107 16t58 48.5t42 111.5l270 1016q17 65 17 98q0 31 -13.5 47t-42.5 22.5t-82 8.5l11 41q113 -6 362 -6q232 0 385 6l-10 -41q-75 -3 -111.5 -16t-58 -48t-41.5 -112l-270 -1016q-18 -70 -18 -100t13.5 -45.5t42.5 -22t82 -8.5l-8 -41q-132 6 -383 6 q-242 0 -362 -6z" />
<glyph unicode="&#x407;" horiz-adv-x="864" d="M-96 0l10 41q71 3 107 16t58 48.5t42 111.5l270 1016q17 65 17 98q0 31 -13.5 47t-42.5 22.5t-82 8.5l11 41q113 -6 362 -6q232 0 385 6l-10 -41q-75 -3 -111.5 -16t-58 -48t-41.5 -112l-270 -1016q-18 -70 -18 -100t13.5 -45.5t42.5 -22t82 -8.5l-8 -41q-132 6 -383 6 q-242 0 -362 -6zM309 1716q0 68 28 113t74 66.5t101 21.5q78 0 116 -43t38 -117q0 -67 -29 -111t-76 -64.5t-100 -20.5q-78 0 -115 41t-37 114zM838 1716q0 68 28 113t73.5 66.5t100.5 21.5q78 0 116 -43t38 -117q0 -67 -29 -111t-75.5 -64.5t-100.5 -20.5q-78 0 -114.5 41 t-36.5 114z" />
<glyph unicode="&#x408;" horiz-adv-x="1464" d="M31 -203q0 80 55.5 129t157.5 49q90 0 148.5 -38.5t58.5 -110.5q0 -116 -134 -172q21 -4 48 -4q60 0 100.5 39.5t72.5 120t74 231.5l142 496q26 92 61 172h-280l6 41h293q63 128 151 227t194 177.5t265 176.5q-111 -31 -228.5 -96t-188.5 -94t-179 -29q-58 0 -111 14 t-145 47t-141 33q-52 0 -84.5 -25.5t-32.5 -78.5q0 -147 282 -164l-4 -37q-206 13 -325 96.5t-119 229.5q0 132 82.5 209t243.5 77q144 0 270.5 -66t203 -99t201.5 -33q80 0 173 17.5t163 53.5q79 120 128 120q14 0 28 -11q13 -11 13 -25q0 -50 -150 -106 q-104 -95 -174 -244t-132 -370h205l-6 -41h-210l-21 -80l-127 -496q-60 -234 -225.5 -376t-464.5 -142q-154 0 -246 43t-92 139z" />
<glyph unicode="&#x409;" horiz-adv-x="2089" d="M-127 190q0 64 30.5 113.5t82.5 76t116 26.5q84 0 133.5 -40.5t49.5 -111.5q0 -60 -27.5 -109t-76 -80.5t-109.5 -41.5q22 -11 53 -11q82 0 141 56q232 222 486 1165q18 63 18 98q0 31 -14 47t-43 22.5t-82 8.5l10 41q65 -6 190 -6q13 0 54 3t88 3q82 0 198.5 -3 t161.5 -3q221 0 365 6l-10 -41q-75 -3 -111.5 -16t-58 -48t-41.5 -112l-123 -463h112q211 0 331 -36.5t166 -96.5t46 -143q0 -147 -92 -259t-254.5 -173.5t-366.5 -61.5q-44 0 -144 3t-218 3q-234 0 -363 -6l9 41q74 3 110.5 16t58.5 48t42 112l270 1016q14 50 14 88 q0 50 -24.5 69t-69.5 19h-29q-44 0 -71.5 -14t-48 -51.5t-39.5 -110.5q-76 -280 -147.5 -501.5t-159.5 -407t-187 -281.5q-75 -72 -186 -72q-71 0 -125.5 29t-84.5 79t-30 111zM1190 124q0 -77 82 -77q86 0 156.5 70t110.5 182t40 233q0 101 -44 152t-153 51h-38l-138 -518 q-16 -69 -16 -93z" />
<glyph unicode="&#x40a;" horiz-adv-x="2292" d="M-96 0l10 41q71 3 107 16t58 48.5t42 111.5l270 1016q17 65 17 98q0 31 -13.5 47t-42.5 22.5t-82 8.5l11 41q112 -6 362 -6q232 0 385 6l-10 -41q-75 -3 -111.5 -16t-58 -48t-41.5 -112l-128 -483h452l129 483q17 65 17 98q0 31 -13.5 47t-42.5 22.5t-82 8.5l10 41 q114 -6 360 -6q234 0 387 6l-10 -41q-75 -3 -111.5 -16t-58 -48t-41.5 -112l-128 -483h118q543 0 543 -279q0 -146 -91.5 -252.5t-253.5 -162.5t-368 -56q-45 0 -144.5 3t-217.5 3q-234 0 -363 -6l8 41q74 3 111 16t58.5 48t41.5 112l131 492h-452l-131 -492 q-18 -70 -18 -100t13.5 -45.5t42.5 -22t82 -8.5l-8 -41q-132 6 -383 6q-242 0 -362 -6zM1389 124q0 -77 81 -77q86 0 157 70t111 182t40 233q0 91 -43.5 134t-153.5 43h-45l-131 -492q-16 -60 -16 -93z" />
<glyph unicode="&#x40b;" horiz-adv-x="1946" d="M162 1161q0 65 34.5 126.5t114.5 101.5q101 49 275 49q90 0 182 -5t272.5 -18.5t274.5 -13.5q101 0 182 18q-35 33 -57.5 82t-22.5 109q0 62 26 108t72 71.5t105 25.5t104.5 -24t71 -66t25.5 -95q0 -127 -148 -203q-140 -67 -368 -67q-48 0 -111 3l-160 -606 q79 32 182.5 53t217.5 21q220 0 327 -94q73 -63 73 -164q0 -59 -22 -149l-55 -234q-11 -45 -11 -78q0 -36 15 -50t49 -19l-10 -43q-236 8 -317 8q-72 0 -328 -8l10 43q54 0 87.5 14t54 45.5t34.5 87.5l76 289q24 93 24 147q0 72 -41 106t-136 34q-59 0 -127 -11.5 t-112 -32.5l-128 -484q-15 -54 -15 -89q0 -56 39 -79t130 -29l-9 -41q-144 6 -426 6q-274 0 -403 -6l8 41q88 3 136.5 21t76 58t47.5 118l308 1155q-117 8 -191 8q-163 0 -236 -35q81 -11 132 -63.5t51 -135.5q0 -58 -26.5 -104.5t-72 -73t-100.5 -26.5q-57 0 -99 27 t-63.5 72.5t-21.5 98.5z" />
<glyph unicode="&#x40c;" horiz-adv-x="1604" d="M-96 0l10 41q71 3 107 16t58 48.5t42 111.5l270 1016q17 65 17 98q0 31 -13.5 47t-42.5 22.5t-82 8.5l11 41q119 -6 383 -6q220 0 364 6l-10 -41q-75 -3 -111.5 -16t-58 -48t-41.5 -112l-270 -1016q-18 -70 -18 -100t13.5 -45.5t42.5 -22t82 -8.5l-8 -41q-126 6 -362 6 q-257 0 -383 -6zM721 742q0 4 2 14q5 21 18 31t40 10q37 0 115 -21q120 18 173.5 109t103 277t105.5 249q60 68 162 68q69 0 124 -28.5t86 -80.5t31 -121q0 -61 -27.5 -117.5t-80 -92t-123.5 -35.5q-46 0 -85.5 19t-64 57.5t-24.5 93.5q0 81 57 153t154 107q-20 10 -53 10 q-43 0 -72 -14.5t-53 -43.5q-49 -59 -98 -229t-96 -265.5t-152 -126.5q133 -9 211 -42t111.5 -88t33.5 -136q0 -40 -8 -93l-33 -205q-1 -4 -1 -11q0 -20 13 -32.5t33 -12.5q56 0 88 99l35 104h41l-53 -158q-37 -110 -115 -164.5t-176 -54.5q-89 0 -152 28t-95.5 78 t-32.5 116q0 21 5 51l58 323q8 50 8 78q0 62 -38 90q-90 -23 -128 -23q-47 0 -47 30zM817 1606q84 74 166 162t122.5 127t92.5 67q43 24 94 24q88 0 127 -71q15 -29 15 -55q0 -75 -107 -136q-39 -21 -87 -35t-174 -43.5t-235 -64.5z" />
<glyph unicode="&#x40e;" horiz-adv-x="1391" d="M133 182q0 64 31 113t83.5 75.5t114.5 26.5q84 0 133.5 -40t49.5 -111q0 -90 -58.5 -150t-152.5 -76q20 -10 63 -10q65 0 115 25t92 71t91 121l-404 1018q-23 56 -40 86t-37.5 47.5t-53.5 30.5l10 41q123 -6 362 -6q179 0 295 6l-10 -41q-75 -6 -104 -19t-29 -47 q0 -29 27 -102l243 -618l373 559q47 70 47 119q0 95 -184 108l10 41q59 -6 291 -6q90 0 154 6l-11 -41q-52 -15 -91 -39.5t-81 -72t-98 -132.5l-613 -924q-61 -96 -105.5 -150t-104.5 -87t-144 -33q-83 0 -142.5 27t-90.5 74.5t-31 109.5zM477 1759q0 52 27 93t75 64t109 23 q94 0 144.5 -36.5t50.5 -110.5q0 -58 -48.5 -109t-119.5 -71q57 -29 196 -29q170 1 315.5 83t246.5 220l30 -22q-117 -164 -278.5 -244t-323.5 -80q-130 0 -225.5 26.5t-147 76t-51.5 116.5z" />
<glyph unicode="&#x40f;" horiz-adv-x="1733" d="M-100 0l10 41q75 3 111.5 16t58 48t41.5 112l270 1016q18 70 18 100t-13.5 45.5t-42.5 22t-83 8.5l9 41q122 -6 385 -6q236 0 362 6l-8 -41q-74 -3 -110.5 -16t-58.5 -48t-42 -112l-270 -1016q-18 -64 -18 -100q0 -45 30.5 -60.5t107.5 -15.5h121q74 0 111 13t58.5 49 t41.5 114l271 1016q17 65 17 99q0 30 -13.5 46t-42.5 22.5t-82 8.5l8 41q126 -6 362 -6q257 0 383 6l-10 -41q-71 -3 -107 -16t-58 -48.5t-42 -111.5l-270 -1016q-17 -65 -17 -98q0 -31 14 -47t42.5 -22.5t81.5 -8.5l-10 -41q-120 6 -383 6h-27q-94 -2 -186.5 -40.5 t-175 -124t-136.5 -220.5h-47q10 53 10 102q0 147 -83.5 214.5t-211.5 68.5q-253 0 -376 -6z" />
<glyph unicode="&#x410;" horiz-adv-x="1370" d="M-197 0l9 41q40 11 74 36.5t73.5 73t101.5 134.5l836 1175q33 -4 79 -4t75 4l82 -1288q5 -67 34 -98t66 -33l-8 -41q-120 6 -346 6q-238 0 -349 -6l9 41q66 3 103 15.5t55.5 43t18.5 87.5q0 17 -1 26l-18 336h-402l-199 -281q-48 -70 -48 -117q0 -96 188 -110l-9 -41 q-211 6 -290 6q-70 0 -134 -6zM324 590h371l-25 489z" />
<glyph unicode="&#x411;" horiz-adv-x="1417" d="M-98 0l8 41q74 3 110.5 16t58.5 48t42 112l270 1016q17 65 17 98q0 31 -13.5 47t-42.5 22.5t-82 8.5l11 41q127 -6 362 -6h348q295 0 424 6q-41 -108 -78 -242q-36 -130 -47 -188h-45q3 39 3 73q0 166 -66 238t-185 72h-2q-63 0 -96 -12t-53.5 -47t-38.5 -111l-123 -463 h113q211 0 330.5 -36.5t165.5 -96.5t46 -143q0 -147 -92 -259t-254 -173.5t-366 -61.5q-45 0 -145 3t-218 3q-233 0 -362 -6zM521 124q0 -77 81 -77q86 0 156.5 70t110.5 182t40 233q0 101 -44 152t-152 51h-38l-138 -518q-16 -60 -16 -93z" />
<glyph unicode="&#x412;" horiz-adv-x="1454" d="M-98 0l8 41q74 3 110.5 16t58.5 48t42 112l270 1016q18 67 18 99q0 40 -30 57.5t-109 19.5l11 41q126 -6 356 -6q83 0 166.5 2t138.5 2q496 0 496 -277q0 -110 -75.5 -202t-220 -148.5t-343.5 -62.5q169 2 292 -37t187.5 -109t64.5 -161q0 -142 -85.5 -243.5 t-246.5 -154.5t-384 -53q-46 0 -145.5 3t-217.5 3q-233 0 -362 -6zM521 124q0 -77 81 -77q86 0 156.5 64.5t110.5 167.5t40 213q0 107 -45.5 175t-150.5 68h-39l-137 -518q-16 -60 -16 -93zM683 770h30q103 0 176 66t110 172.5t37 226.5q0 83 -24 128.5t-90 45.5 q-30 0 -48 -12t-31.5 -42.5t-29.5 -90.5z" />
<glyph unicode="&#x413;" horiz-adv-x="1178" d="M-98 0l8 41q74 3 110.5 16t58.5 48t42 112l270 1016q17 65 17 98q0 31 -13.5 47t-42.5 22.5t-82 8.5l11 41q127 -6 362 -6h348q266 0 383 6q-41 -108 -78 -242q-30 -111 -47 -188h-45q3 39 3 74q0 166 -60 237.5t-170 71.5h-4q-46 0 -74.5 -12.5t-50.5 -49t-41 -108.5 l-270 -1016q-15 -57 -15 -91t17 -51.5t53.5 -24.5t105.5 -9l-8 -41q-138 6 -407 6q-258 0 -381 -6z" />
<glyph unicode="&#x414;" horiz-adv-x="1350" d="M-328 -389q-3 -10 47 127q61 182 84 303h127q84 0 142 55q235 225 485 1137q18 63 18 98q0 31 -14 47t-43 22.5t-82 8.5l10 41q65 -6 191 -6q13 0 53.5 3t87.5 3q82 0 198.5 -3t162.5 -3q220 0 364 6l-10 -41q-75 -3 -111.5 -16t-58 -48t-41.5 -112l-270 -1016 q-17 -65 -17 -98q0 -31 13.5 -47t42.5 -22.5t82 -8.5h63q-44 -115 -90 -303q-9 -36 -27 -127h-45q4 56 4 79q0 117 -38.5 185.5t-121.5 98.5t-221 30q-36 0 -111.5 -2t-170.5 -2h-47q-178 0 -285 -31.5t-182 -114t-144 -243.5h-45zM67 41h322q69 0 106 13t59 49.5t42 113.5 l270 1016q14 50 14 88q0 50 -24.5 69t-69.5 19h-28q-44 0 -71.5 -14t-48 -51.5t-40.5 -110.5q-117 -427 -234.5 -726.5t-259.5 -434.5q-17 -18 -37 -31z" />
<glyph unicode="&#x415;" horiz-adv-x="1305" d="M-98 0l8 41q74 3 110.5 16t58.5 48t42 112l270 1016q17 65 17 98q0 31 -13.5 47t-42.5 22.5t-82 8.5l11 41q235 -6 710 -6q295 0 424 6q-50 -129 -78 -242q-11 -46 -26 -127h-45q1 119 -26.5 190t-82 101.5t-139.5 30.5h-6q-71 0 -106.5 -12t-57 -46.5t-41.5 -111.5 l-128 -483h36q64 0 123 31.5t103 84t67 113.5h45q-26 -79 -43.5 -148.5t-26.5 -101.5q-27 -102 -53 -250h-45q0 54 -19 106.5t-63.5 88t-116.5 35.5h-18l-131 -492q-18 -70 -18 -100q0 -29 13.5 -44t41.5 -20.5t79 -5.5h27q100 0 175.5 34.5t140.5 113t132 215.5h46 q-14 -36 -44 -148q-32 -117 -53 -262q-139 6 -463 6q-475 0 -712 -6z" />
<glyph unicode="&#x416;" horiz-adv-x="2212" d="M-94 186l35 19q13 -29 35 -44.5t47 -15.5t46.5 15.5t30.5 40.5l78 205q43 113 108 187.5t171 118t268 53.5q-80 28 -80 138q0 41 8.5 88.5t32.5 156t24 164.5q0 19 -3 36q-8 40 -33 68t-68 28q-26 0 -47 -6q42 -29 64 -78t22 -107q0 -79 -38 -135.5t-95.5 -85 t-116.5 -28.5q-74 0 -118 45.5t-44 119.5q0 82 52 153.5t135 114t170 42.5q131 0 155 -109q6 -27 6 -57q0 -61 -20.5 -149t-32.5 -147t-12 -112q0 -54 23 -86t88 -43q48 15 70 15q28 0 28 -21q0 -4 -2 -14q-9 -41 -53 -41q-26 0 -65 19q-43 -22 -69.5 -59.5t-52.5 -107.5 l-123 -323q-38 -100 -85 -159.5t-110.5 -86.5t-152.5 -27q-81 0 -133.5 21.5t-86 68t-56.5 125.5zM573 0l11 41q71 3 107 16t58 48.5t42 111.5l268 1016q18 72 18 96q0 39 -30 57t-107 23l10 41q120 -6 375 -6q229 0 373 6l-10 -41q-75 -3 -111.5 -16t-58 -48t-41.5 -112 l-269 -1016q-19 -73 -19 -100q0 -38 30 -55t108 -21l-8 -41q-126 6 -371 6q-249 0 -375 -6zM1384 743q0 3 2 13q10 41 54 41q14 0 25 -3.5t41 -17.5q107 20 158 109t101 268t99 240q38 46 88.5 66t101.5 20q65 0 119 -28.5t85.5 -80.5t31.5 -119q0 -62 -27.5 -119t-79 -92.5 t-119.5 -35.5q-49 0 -90 19t-65.5 56.5t-24.5 91.5q0 57 28 110.5t78.5 94t116.5 60.5q-29 8 -63 8q-103 0 -156 -88q-37 -62 -80.5 -223.5t-90.5 -251t-150 -117.5q116 -8 194 -32.5t122.5 -79.5t44.5 -151q0 -42 -9 -95l-33 -205q-1 -4 -1 -11q0 -20 13 -32.5t33 -12.5 q56 0 88 99l35 104h41l-53 -158q-37 -111 -115 -165t-188 -54q-82 0 -142 28t-92.5 78.5t-32.5 115.5q0 21 5 51l57 323q10 52 10 81q0 55 -40 86q-48 -19 -81 -19q-39 0 -39 28z" />
<glyph unicode="&#x417;" horiz-adv-x="1262" d="M-45 266q0 57 26 112.5t78.5 91.5t126.5 36q79 0 126.5 -43t47.5 -123q0 -63 -29.5 -121.5t-79.5 -98.5t-110 -52q64 -45 187 -45q119 0 211.5 49.5t145 144t52.5 223.5q0 67 -22 135t-65 116.5t-101 58.5q-62 -30 -95 -30q-42 0 -42 29q0 38 57 38q31 0 68 -11 q85 20 161 85t122 155t46 182q0 89 -44 127.5t-130 38.5q-107 0 -179.5 -52.5t-116.5 -131.5t-91 -201h-45q90 291 119 471h43q-6 -36 -6 -62q0 -57 31 -57q15 0 34 12q81 50 133 76.5t120 43t157 16.5q117 0 207 -28.5t141 -85t51 -136.5q0 -120 -111 -216t-273 -158 t-318 -87q259 3 415 -71t156 -253q0 -131 -104 -239.5t-271.5 -171t-347.5 -62.5q-237 0 -368 95q-113 81 -113 200z" />
<glyph unicode="&#x418;" horiz-adv-x="1774" d="M-96 0l10 41q71 3 107 16t58 48.5t42 111.5l270 1016q17 65 17 98q0 31 -13.5 47t-42.5 22.5t-82 8.5l11 41q119 -6 383 -6q220 0 364 6l-10 -41q-75 -3 -111.5 -16t-58 -48t-41.5 -112l-248 -935l748 963q11 46 11 71q0 30 -14 46t-42.5 22.5t-81.5 8.5l10 41 q123 -6 360 -6q261 0 387 6l-10 -41q-75 -3 -111.5 -16t-58 -48t-41.5 -112l-270 -1016q-18 -70 -18 -100t13.5 -45.5t42.5 -22t83 -8.5l-8 -41q-123 6 -385 6q-237 0 -363 -6l8 41q74 3 110.5 16t58.5 48t42 112l249 937l-747 -956q-13 -55 -13 -81q0 -30 13.5 -45.5 t42.5 -22t82 -8.5l-8 -41q-126 6 -362 6q-257 0 -383 -6z" />
<glyph unicode="&#x419;" horiz-adv-x="1774" d="M-96 0l10 41q71 3 107 16t58 48.5t42 111.5l270 1016q17 65 17 98q0 31 -13.5 47t-42.5 22.5t-82 8.5l11 41q119 -6 383 -6q220 0 364 6l-10 -41q-75 -3 -111.5 -16t-58 -48t-41.5 -112l-248 -935l748 963q11 46 11 71q0 30 -14 46t-42.5 22.5t-81.5 8.5l10 41 q123 -6 360 -6q261 0 387 6l-10 -41q-75 -3 -111.5 -16t-58 -48t-41.5 -112l-270 -1016q-18 -70 -18 -100t13.5 -45.5t42.5 -22t83 -8.5l-8 -41q-123 6 -385 6q-237 0 -363 -6l8 41q74 3 110.5 16t58.5 48t42 112l249 937l-747 -956q-13 -55 -13 -81q0 -30 13.5 -45.5 t42.5 -22t82 -8.5l-8 -41q-126 6 -362 6q-257 0 -383 -6zM678 1759q0 52 27 93t75 64t109 23q94 0 144.5 -36.5t50.5 -110.5q0 -58 -48.5 -109t-119.5 -71q57 -29 196 -29q170 1 315.5 83t246.5 220l30 -22q-117 -164 -278.5 -244t-323.5 -80q-130 0 -225.5 26.5t-147 76 t-51.5 116.5z" />
<glyph unicode="&#x41a;" horiz-adv-x="1604" d="M-96 0l10 41q71 3 107 16t58 48.5t42 111.5l270 1016q17 65 17 98q0 31 -13.5 47t-42.5 22.5t-82 8.5l11 41q119 -6 383 -6q220 0 364 6l-10 -41q-75 -3 -111.5 -16t-58 -48t-41.5 -112l-270 -1016q-18 -70 -18 -100t13.5 -45.5t42.5 -22t82 -8.5l-8 -41q-126 6 -362 6 q-257 0 -383 -6zM721 742q0 4 2 14q5 21 18 31t40 10q37 0 115 -21q120 18 173.5 109t103 277t105.5 249q60 68 162 68q69 0 124 -28.5t86 -80.5t31 -121q0 -61 -27.5 -117.5t-80 -92t-123.5 -35.5q-46 0 -85.5 19t-64 57.5t-24.5 93.5q0 81 57 153t154 107q-20 10 -53 10 q-43 0 -72 -14.5t-53 -43.5q-49 -59 -98 -229t-96 -265.5t-152 -126.5q133 -9 211 -42t111.5 -88t33.5 -136q0 -40 -8 -93l-33 -205q-1 -4 -1 -11q0 -20 13 -32.5t33 -12.5q56 0 88 99l35 104h41l-53 -158q-37 -110 -115 -164.5t-176 -54.5q-89 0 -152 28t-95.5 78 t-32.5 116q0 21 5 51l58 323q8 50 8 78q0 62 -38 90q-90 -23 -128 -23q-47 0 -47 30z" />
<glyph unicode="&#x41b;" horiz-adv-x="1534" d="M-127 190q0 64 30.5 113.5t82.5 76t116 26.5q84 0 133.5 -40.5t49.5 -111.5q0 -60 -27.5 -109t-76 -80.5t-109.5 -41.5q22 -11 53 -11q82 0 141 56q232 222 486 1165q18 63 18 98q0 31 -14 47t-43 22.5t-82 8.5l10 41q65 -6 190 -6q13 0 54 3t88 3q82 0 198.5 -3 t161.5 -3q221 0 365 6l-10 -41q-75 -3 -111.5 -16t-58 -48t-41.5 -112l-271 -1016q-17 -65 -17 -98q0 -31 14 -47t42.5 -22.5t81.5 -8.5l-8 -41q-132 6 -383 6q-243 0 -363 -6l11 41q71 3 107 16t58 48.5t42 111.5l270 1016q14 50 14 88q0 50 -24.5 69t-69.5 19h-29 q-44 0 -71.5 -14t-48 -51.5t-39.5 -110.5q-76 -280 -147.5 -501.5t-159.5 -407t-187 -281.5q-75 -72 -186 -72q-71 0 -125.5 29t-84.5 79t-30 111z" />
<glyph unicode="&#x41c;" horiz-adv-x="1944" d="M-96 0l8 41q96 4 148 69.5t79 170.5l254 952q17 65 17 98q0 31 -13.5 47t-42.5 22.5t-82 8.5l11 41q112 -6 346 -6q109 0 188 6l119 -934l592 928h201q225 0 378 6l-10 -41q-75 -3 -111.5 -16t-58 -48t-41.5 -112l-270 -1016q-17 -65 -17 -98q0 -31 13.5 -47t42.5 -22.5 t82 -8.5l-8 -41q-151 6 -377 6q-252 0 -369 -6l8 41q75 3 111.5 16t58 48t41.5 112l297 1104l-850 -1331h-45l-182 1196l-238 -905q-15 -55 -15 -98q0 -137 181 -142l-8 -41q-73 6 -244 6q-126 0 -194 -6z" />
<glyph unicode="&#x41d;" horiz-adv-x="1733" d="M-96 0l10 41q71 3 107 16t58 48.5t42 111.5l270 1016q17 65 17 98q0 31 -13.5 47t-42.5 22.5t-82 8.5l11 41q118 -6 383 -6q220 0 364 6l-10 -41q-75 -3 -111.5 -16t-58 -48t-41.5 -112l-128 -483h452l129 483q17 65 17 98q0 31 -14 47t-42.5 22.5t-81.5 8.5l10 41 q123 -6 360 -6q261 0 387 6l-10 -41q-75 -3 -111.5 -16t-58 -48t-41.5 -112l-270 -1016q-18 -70 -18 -100t13.5 -45.5t42.5 -22t83 -8.5l-8 -41q-123 6 -385 6q-237 0 -363 -6l8 41q74 3 111 16t58.5 48t41.5 112l131 492h-452l-131 -492q-18 -70 -18 -100t13.5 -45.5 t42.5 -22t82 -8.5l-8 -41q-126 6 -362 6q-257 0 -383 -6z" />
<glyph unicode="&#x41e;" horiz-adv-x="1657" d="M70 463q0 232 124.5 469t348.5 392t504 155q188 0 324 -58t209 -169t73 -267q0 -231 -125.5 -467.5t-350 -391.5t-503.5 -155q-188 0 -324 58t-208 168.5t-72 265.5zM512 436q0 -131 23 -228t64 -148.5t93 -51.5q129 0 249 147.5t193.5 381.5t73.5 477q0 131 -23 228 t-63.5 148.5t-93.5 51.5q-129 0 -249 -147.5t-193.5 -381.5t-73.5 -477z" />
<glyph unicode="&#x41f;" horiz-adv-x="1733" d="M-96 0l10 41q71 3 107 16t58 48.5t42 111.5l270 1016q17 65 17 98q0 31 -13.5 47t-42.5 22.5t-82 8.5l11 41q119 -6 383 -6q51 0 183 3t243 3q97 0 231.5 -3t187.5 -3q261 0 387 6l-10 -41q-75 -3 -111.5 -16t-58 -48t-41.5 -112l-270 -1016q-18 -70 -18 -100t13.5 -45.5 t42.5 -22t83 -8.5l-8 -41q-123 6 -385 6q-237 0 -363 -6l8 41q74 3 111 16t58.5 48t41.5 112l271 1016q17 65 17 99q0 46 -30.5 61.5t-107.5 15.5h-121q-73 0 -110.5 -13t-59 -49t-41.5 -114l-270 -1016q-18 -70 -18 -100t13.5 -45.5t42.5 -22t82 -8.5l-8 -41q-126 6 -362 6 q-257 0 -383 -6z" />
<glyph unicode="&#x420;" horiz-adv-x="1391" d="M-98 0l8 41q74 3 110.5 16t58.5 48t42 112l270 1016q14 78 14 94q0 41 -29 59.5t-106 22.5l11 41q119 -6 374 -6q49 0 148.5 2t150.5 2q270 0 400.5 -76t130.5 -233q0 -155 -107 -279.5t-301 -198t-445 -79.5l-97 -365q-14 -50 -14 -82q0 -45 30.5 -67.5t103.5 -26.5 l-8 -41q-141 6 -356 6q-266 0 -389 -6zM643 624q143 10 235 99.5t133.5 216.5t41.5 254q0 106 -38 160.5t-120 54.5q-33 0 -44.5 -19t-23.5 -69t-22 -88z" />
<glyph unicode="&#x421;" horiz-adv-x="1450" d="M76 496q0 246 135.5 473t373.5 368.5t529 141.5q112 0 181 -35.5t122 -97.5q15 -18 30 -18q38 0 83 122h43q-68 -177 -131 -471h-45q20 118 20 177q0 90 -35 149q-38 65 -92 90.5t-133 25.5q-161 0 -301.5 -133.5t-224.5 -355.5t-84 -475q0 -207 70.5 -307.5 t197.5 -100.5q69 0 141.5 31.5t124.5 87.5q54 58 94 129t91 195h45q-97 -355 -121 -492h-45q6 44 6 70q0 52 -26 52q-16 0 -42 -18q-192 -133 -409 -133q-305 0 -451.5 136t-146.5 389z" />
<glyph unicode="&#x422;" horiz-adv-x="1423" d="M160 1161q0 65 34.5 126.5t114.5 101.5q101 49 275 49q90 0 182 -5t272.5 -18.5t274.5 -13.5q105 0 184 15q-36 33 -59 83t-23 111q0 62 26 108t72 71.5t105 25.5t105 -25t71 -65.5t25 -86.5q0 -150 -172 -223q-135 -55 -355 -55l-59 1l-297 -1123q-15 -54 -15 -89 q0 -54 38.5 -78t130.5 -30l-9 -41q-144 6 -428 6q-272 0 -401 -6l8 41q88 3 136.5 21t76 58t47.5 118l307 1152q-149 11 -233 11q-161 0 -234 -35q81 -11 132 -63.5t51 -135.5q0 -58 -26.5 -104.5t-72 -73t-100.5 -26.5q-57 0 -99 27t-63.5 72.5t-21.5 98.5z" />
<glyph unicode="&#x423;" horiz-adv-x="1391" d="M133 182q0 64 31 113t83.5 75.5t114.5 26.5q84 0 133.5 -40t49.5 -111q0 -90 -58.5 -150t-152.5 -76q20 -10 63 -10q65 0 115 25t92 71t91 121l-404 1018q-23 56 -40 86t-37.5 47.5t-53.5 30.5l10 41q123 -6 362 -6q179 0 295 6l-10 -41q-75 -6 -104 -19t-29 -47 q0 -29 27 -102l243 -618l373 559q47 70 47 119q0 95 -184 108l10 41q59 -6 291 -6q90 0 154 6l-11 -41q-52 -15 -91 -39.5t-81 -72t-98 -132.5l-613 -924q-61 -96 -105.5 -150t-104.5 -87t-144 -33q-83 0 -142.5 27t-90.5 74.5t-31 109.5z" />
<glyph unicode="&#x424;" horiz-adv-x="2050" d="M31 526q0 150 131.5 287.5t381 225t586.5 91.5q80 78 176.5 146t235.5 154q-100 -29 -243.5 -90.5t-227 -90t-174.5 -28.5q-65 0 -111.5 15t-111.5 47t-107 32q-38 0 -61 -18t-23 -50q0 -34 27.5 -58t87.5 -48l-25 -37q-99 32 -151.5 97t-52.5 151q0 71 36 128t104 89.5 t159 32.5q106 0 239.5 -51.5t219 -79t204.5 -27.5q57 0 128 7.5t124 23.5q77 119 128 119q14 0 28 -11q13 -11 13 -25q0 -50 -150 -106q-125 -113 -213 -331q209 -19 356 -71.5t224 -136.5t77 -194q0 -137 -111 -265t-323 -217.5t-501 -113.5q-61 -228 -224.5 -368 t-464.5 -140q-152 0 -244 43t-92 143q0 77 56.5 125.5t158.5 48.5q91 0 148 -39t57 -112q0 -114 -133 -170q20 -4 47 -4q60 0 100.5 39.5t72.5 119.5t75 232l23 83q-210 18 -358 70.5t-225 136.5t-77 195zM434 508q0 -264 272 -332l125 449q77 273 262 468 q-215 -10 -362.5 -84.5t-222 -203t-74.5 -297.5zM1123 167q170 29 286 106.5t174.5 195.5t58.5 268q0 265 -272 334q-48 -131 -106 -354z" />
<glyph unicode="&#x425;" horiz-adv-x="1575" d="M-92 209q0 71 29.5 124.5t80.5 83t113 29.5q77 0 122.5 -45.5t45.5 -126.5q0 -60 -27 -112.5t-75.5 -88.5t-110.5 -50q15 -17 53 -17q58 0 140 51q76 55 175.5 181t192.5 300l-88 707q-6 44 -25.5 63t-56.5 19q-83 0 -125 -121l-35 -104h-41l54 158q43 116 126.5 167.5 t207.5 51.5q107 0 174 -34t103.5 -104t49.5 -182l26 -213q68 146 148.5 269.5t151.5 189.5q92 74 186 74q66 0 116 -31.5t77.5 -85.5t27.5 -121q0 -71 -29.5 -124.5t-80.5 -83t-113 -29.5q-77 0 -122.5 45.5t-45.5 126.5q0 60 27 112.5t75.5 88.5t110.5 50q-15 17 -53 17 q-63 0 -135 -51q-70 -59 -159 -193t-174 -323l81 -662q12 -78 86 -78q84 0 121 107l35 104h41l-54 -158q-43 -117 -118 -168t-189 -51q-120 0 -192 36.5t-108 105.5t-50 178l-23 183q-73 -135 -161.5 -251.5t-171.5 -183.5q-94 -68 -193 -68q-66 0 -116 31.5t-77.5 85.5 t-27.5 121z" />
<glyph unicode="&#x426;" horiz-adv-x="1743" d="M-100 0l10 41q75 3 111.5 16t58 48t41.5 112l270 1016q18 70 18 100t-13.5 45.5t-42.5 22t-83 8.5l9 41q122 -6 385 -6q236 0 362 6l-8 -41q-74 -3 -110.5 -16t-58.5 -48t-42 -112l-270 -1016q-18 -64 -18 -100q0 -45 30.5 -60.5t107.5 -15.5h121q74 0 111 13t58.5 49 t41.5 114l271 1016q17 65 17 99q0 30 -13.5 46t-42.5 22.5t-82 8.5l8 41q126 -6 362 -6q257 0 383 6l-10 -41q-71 -3 -107 -16t-58 -48.5t-42 -111.5l-270 -1016q-17 -65 -17 -99q0 -46 30.5 -61.5t107.5 -15.5h63q-38 -100 -90 -303q-11 -47 -26 -127h-46q4 56 4 80 q0 117 -38.5 185t-121 98t-220.5 30q-59 0 -157.5 -2t-186.5 -2q-97 0 -231.5 3t-188.5 3q-261 0 -387 -6z" />
<glyph unicode="&#x427;" horiz-adv-x="1616" d="M184 796q0 54 23 148l76 316q12 49 12 79q0 35 -16 49t-50 19l11 43q236 -8 317 -8q72 0 328 8l-11 -43q-53 0 -86 -14t-53.5 -45.5t-36.5 -87.5l-96 -371q-26 -93 -26 -146q0 -72 42.5 -106.5t137.5 -34.5q56 0 121 10.5t109 29.5l159 591q18 65 18 100q0 30 -13.5 45.5 t-42 22t-81.5 8.5l10 41q117 -6 365 -6q251 0 383 6l-10 -41q-75 -3 -111.5 -16t-58.5 -48t-43 -112l-273 -1016q-18 -65 -18 -100q0 -30 13.5 -45.5t42 -22t81.5 -8.5l-10 -41q-123 6 -385 6q-266 0 -404 -6l10 41q93 3 138 16t70 48t46 112l105 391q-187 -71 -391 -71 q-221 0 -328 94q-39 35 -56.5 74.5t-17.5 90.5z" />
<glyph unicode="&#x428;" horiz-adv-x="2519" d="M-100 0l10 41q75 3 111.5 16t58 48t41.5 112l270 1016q18 70 18 100t-13.5 45.5t-42.5 22t-83 8.5l9 41q122 -6 374 -6q233 0 353 6l-9 -41q-66 -3 -99 -16.5t-53 -48.5t-40 -111l-266 -1016q-18 -67 -18 -104q0 -43 26 -57.5t90 -14.5h121q64 0 97.5 13t54 49t40.5 114 l264 1016q21 76 21 107q0 36 -25.5 50.5t-91.5 18.5l8 41q117 -6 357 -6q230 0 350 6l-8 -41q-66 -3 -98.5 -16.5t-52.5 -48t-40 -111.5l-270 -1016q-17 -65 -17 -100q0 -44 27 -60t90 -16h121q65 0 98.5 13.5t52.5 49t40 113.5l270 1016q17 65 17 99q0 43 -26 58.5 t-91 18.5l8 41q120 -6 352 -6q247 0 373 6l-10 -41q-71 -3 -107 -16t-58 -48.5t-42 -111.5l-271 -1016q-17 -65 -17 -98q0 -31 14 -47t42.5 -22.5t81.5 -8.5l-10 -41q-120 6 -346 6q-90 0 -215.5 -3t-218.5 -3q-103 0 -230 3t-178 3q-50 0 -186.5 -3t-239.5 -3 q-94 0 -219.5 3t-216.5 3q-226 0 -352 -6z" />
<glyph unicode="&#x429;" horiz-adv-x="2529" d="M-100 0l10 41q75 3 111.5 16t58 48t41.5 112l270 1016q18 70 18 100t-13.5 45.5t-42.5 22t-83 8.5l9 41q122 -6 374 -6q233 0 353 6l-9 -41q-66 -3 -98.5 -16.5t-52 -48t-39.5 -111.5l-270 -1016q-17 -66 -17 -100q0 -44 26.5 -60t90.5 -16h121q65 0 98 13.5t52 49 t40 113.5l271 1016q17 65 17 98q0 44 -26.5 59.5t-91.5 18.5l8 41q117 -6 357 -6q230 0 350 6l-8 -41q-66 -3 -98.5 -16.5t-52.5 -48t-40 -111.5l-270 -1016q-17 -65 -17 -100q0 -44 27 -60t90 -16h121q65 0 98.5 13.5t52.5 49t40 113.5l270 1016q17 65 17 99q0 43 -26 58.5 t-91 18.5l8 41q120 -6 352 -6q247 0 373 6l-10 -41q-71 -3 -107 -16t-58 -48.5t-42 -111.5l-271 -1016q-17 -65 -17 -99q0 -46 30.5 -61.5t107.5 -15.5h64q-44 -115 -90 -303q-12 -45 -27 -127h-45q3 40 3 77q0 118 -38.5 186.5t-121 99t-220.5 30.5q-36 0 -135 -2t-186 -2 q-96 0 -223.5 3t-178.5 3q-49 0 -186 -3t-242 -3q-92 0 -217.5 3t-216.5 3q-226 0 -352 -6z" />
<glyph unicode="&#x42a;" horiz-adv-x="1735" d="M156 1133q0 70 37.5 139t109.5 112q107 66 279 66q59 0 175.5 -3t205.5 -3q232 0 387 6l-11 -41q-75 -3 -111.5 -16t-58 -48t-41.5 -112l-123 -463h113q211 0 331 -36.5t166 -96.5t46 -143q0 -147 -92 -259t-254.5 -173.5t-366.5 -61.5q-44 0 -144 3t-218 3 q-234 0 -363 -6l8 41q74 3 111 16t58.5 48t41.5 112l271 1016q22 71 22 105q0 30 -15.5 46t-48.5 22.5t-91 6.5q-68 0 -130 -13.5t-98 -41.5q81 -13 134 -71.5t53 -145.5q0 -60 -26.5 -107.5t-72 -73.5t-100.5 -26q-57 0 -99 27t-63.5 72.5t-21.5 99.5zM842 124 q0 -77 82 -77q86 0 156.5 70t110.5 182t40 233q0 101 -44 152t-153 51h-38l-138 -518q-16 -69 -16 -93z" />
<glyph unicode="&#x42b;" horiz-adv-x="2277" d="M-98 0l8 41q74 3 110.5 16t58.5 48t42 112l270 1016q17 65 17 98q0 31 -13.5 47t-42.5 22.5t-82 8.5l11 41q113 -6 360 -6q234 0 387 6l-10 -41q-75 -3 -111.5 -16t-58 -48t-41.5 -112l-123 -463h113q211 0 330.5 -36.5t165.5 -96.5t46 -143q0 -147 -92 -259t-254 -173.5 t-366 -61.5q-45 0 -145 3t-218 3q-233 0 -362 -6zM521 124q0 -77 81 -77q86 0 156.5 70t110.5 182t40 233q0 101 -44 152t-152 51h-38l-138 -518q-16 -60 -16 -93zM1317 0l10 41q71 3 107 16t58 48.5t42 111.5l270 1016q17 65 17 98q0 31 -13.5 47t-42.5 22.5t-82 8.5l11 41 q113 -6 362 -6q232 0 385 6l-10 -41q-75 -3 -111.5 -16t-58 -48t-41.5 -112l-270 -1016q-18 -70 -18 -100t13.5 -45.5t42.5 -22t82 -8.5l-8 -41q-132 6 -383 6q-242 0 -362 -6z" />
<glyph unicode="&#x42c;" horiz-adv-x="1413" d="M-98 0l8 41q74 3 110.5 16t58.5 48t42 112l270 1016q17 65 17 98q0 31 -13.5 47t-42.5 22.5t-82 8.5l11 41q113 -6 360 -6q234 0 387 6l-10 -41q-75 -3 -111.5 -16t-58 -48t-41.5 -112l-123 -463h113q211 0 330.5 -36.5t165.5 -96.5t46 -143q0 -147 -92 -259t-254 -173.5 t-366 -61.5q-45 0 -145 3t-218 3q-233 0 -362 -6zM521 124q0 -77 81 -77q86 0 156.5 70t110.5 182t40 233q0 101 -44 152t-152 51h-38l-138 -518q-16 -60 -16 -93z" />
<glyph unicode="&#x42d;" horiz-adv-x="1481" d="M-39 0q67 174 131 471h45q-9 -79 -9 -129l1 -29q3 -70 33.5 -135t93 -107t156.5 -42q131 0 254 90.5t209.5 274.5t106.5 450q-64 -121 -116 -192.5t-104 -106.5t-113 -35q-48 0 -86.5 18.5t-115 73.5t-144.5 55q-41 0 -79 -20t-79 -70l-26 19q100 191 187 283t188 92 q50 0 91 -18.5t125.5 -74t157.5 -55.5q35 0 61 17t56 67q2 47 2 96q0 205 -70.5 306.5t-197.5 101.5q-72 0 -142.5 -31.5t-123.5 -87.5q-54 -55 -97 -134.5t-88 -189.5h-45q97 355 121 492h45q-7 -61 -7 -73q0 -47 26 -47q17 0 43 16q77 47 129 73t125 43t172 17 q190 0 320 -66.5t195.5 -188.5t65.5 -288q0 -269 -129 -489.5t-357 -348t-513 -127.5q-105 0 -182.5 36t-141.5 99q-18 18 -35 18q-50 0 -96 -124h-43z" />
<glyph unicode="&#x42e;" horiz-adv-x="2392" d="M-96 0l10 41q71 3 107 16t58 48.5t42 111.5l270 1016q17 65 17 98q0 31 -13.5 47t-42.5 22.5t-82 8.5l11 41q113 -6 362 -6q232 0 385 6l-10 -41q-75 -3 -111.5 -16t-58 -48t-41.5 -112l-128 -483h221q51 193 176.5 359.5t311.5 268t408 101.5q179 0 309 -68t198.5 -193 t68.5 -294q0 -227 -119.5 -448.5t-332 -363t-476.5 -141.5q-179 0 -308.5 68t-197.5 192.5t-68 292.5q0 91 20 185h-222l-131 -492q-18 -70 -18 -100t13.5 -45.5t42.5 -22t82 -8.5l-8 -41q-132 6 -383 6q-242 0 -362 -6zM1313 416q0 -193 40.5 -300.5t121.5 -107.5 q96 0 202.5 141.5t178 378.5t71.5 506q0 193 -40.5 300.5t-121.5 107.5q-96 0 -202.5 -141.5t-178 -378.5t-71.5 -506z" />
<glyph unicode="&#x42f;" horiz-adv-x="1516" d="M-133 186l35 19q13 -29 35 -44.5t47 -15.5q57 0 77 56l78 205q33 87 92 145.5t162.5 93t262.5 42.5q-145 18 -236.5 73t-132.5 131.5t-41 163.5q0 199 185.5 297t512.5 98q39 0 148.5 -3t224.5 -3q233 0 362 6l-8 -41q-74 -3 -110.5 -16t-58.5 -48t-42 -112l-270 -1016 q-17 -65 -17 -98q0 -31 14 -47t42.5 -22.5t81.5 -8.5l-11 -41q-112 6 -360 6q-234 0 -387 -6l10 41q75 3 111.5 16t58 48t41.5 112l123 463h-113h-45q-41 -4 -67 -25t-43 -54.5t-41 -96.5l-96 -260q-38 -100 -85.5 -159.5t-111 -86.5t-152.5 -27q-81 0 -133.5 22t-86 68.5 t-56.5 124.5zM672 997q0 -118 46 -200t150 -82h38l138 518q17 62 17 94q0 37 -20 56.5t-70 19.5q-81 0 -150 -52.5t-109 -145.5t-40 -208z" />
<glyph unicode="&#x430;" horiz-adv-x="1360" d="M-197 0l9 41q39 18 71 43.5t70.5 70t107.5 130.5l781 975q52 -4 77 -4q26 0 76 4l127 -1088q9 -68 37 -98.5t64 -32.5l-11 -41q-118 6 -346 6q-237 0 -348 -6l10 41q63 3 101 14.5t58 39t20 78.5q0 26 -2 40l-31 254h-416l-160 -199q-54 -67 -54 -113q0 -89 192 -114 l-9 -41q-182 6 -290 6q-70 0 -134 -6zM291 508h378l-50 409z" />
<glyph unicode="&#x431;" horiz-adv-x="1407" d="M-100 0l8 41q74 3 110.5 16t58.5 48t42 112l217 811q18 63 18 99q0 30 -14 46t-43 22.5t-82 8.5l10 41q236 -6 711 -6q295 0 424 6q-47 -122 -80 -254q-24 -96 -39 -176h-45q3 36 3 70q0 149 -62.5 231t-173.5 82h-27q-63 0 -94.5 -12t-50.5 -46t-39 -112l-96 -360h104 q545 0 545 -277q0 -111 -86 -200t-241 -140t-353 -51q-49 0 -163 3t-190 3q-249 0 -372 -6zM515 107q0 -60 48 -60q152 0 231.5 102t79.5 277q0 207 -167 207h-61l-111 -416q-20 -71 -20 -110z" />
<glyph unicode="&#x432;" horiz-adv-x="1432" d="M-100 0l8 41q74 3 110.5 16t58.5 48t42 112l217 811q18 67 18 99q0 40 -30 57.5t-109 19.5l10 41q120 -6 367 -6q46 0 141 2t148 2q260 0 380.5 -59.5t120.5 -188.5q0 -86 -66 -157.5t-196 -117.5t-315 -58q181 -2 292.5 -41t159.5 -99t48 -131q0 -130 -84.5 -217.5 t-237.5 -130.5t-358 -43q-49 0 -163 3t-190 3q-249 0 -372 -6zM515 107q0 -60 48 -60q152 0 231.5 102t79.5 277q0 207 -167 207h-62l-110 -416q-20 -71 -20 -110zM655 668h23q92 0 157.5 51.5t98.5 138t33 189.5q0 157 -117 157q-23 0 -35.5 -6t-21 -22t-17.5 -50z" />
<glyph unicode="&#x433;" horiz-adv-x="1194" d="M-100 0l8 41q74 3 110.5 16t58.5 48t42 112l217 811q17 65 17 98q0 31 -14 47t-42.5 22.5t-81.5 8.5l10 41q224 -6 670 -6q295 0 424 6q-42 -108 -80 -254q-24 -96 -39 -176h-45q3 36 3 70q0 149 -62.5 231t-173.5 82h-7q-56 0 -84.5 -11.5t-46 -46.5t-32.5 -112 l-217 -811q-15 -57 -15 -91t17 -51.5t53.5 -24.5t105.5 -9l-8 -41q-138 6 -407 6q-258 0 -381 -6z" />
<glyph unicode="&#x434;" horiz-adv-x="1337" d="M-299 -389q6 21 21.5 60.5t25.5 66.5q61 182 84 303h143q84 0 142 55q98 91 200 327.5t193 604.5q17 66 17 99q0 31 -14 46.5t-42.5 22t-81.5 8.5l10 41q64 -6 191 -6q11 0 46 3t75 3q113 0 205.5 -3t134.5 -3q230 0 385 6l-11 -41q-75 -3 -111.5 -16t-58 -48t-41.5 -112 l-215 -811q-17 -65 -17 -99q0 -31 13.5 -47.5t43 -23t81.5 -6.5h64q-44 -115 -90 -303q-12 -45 -27 -127h-45q4 56 4 79q0 117 -38.5 185.5t-121.5 98.5t-221 30q-53 0 -145 -2t-144 -2q-178 0 -285 -31.5t-182 -114t-143 -243.5h-45zM109 41h268q69 0 106 13t59 49.5 t42 113.5l215 811q17 62 17 102q0 43 -22.5 58.5t-74.5 15.5h-8q-42 0 -70.5 -14t-50.5 -52t-39 -110q-77 -332 -183.5 -596t-217.5 -360q-20 -18 -41 -31z" />
<glyph unicode="&#x435;" horiz-adv-x="1319" d="M-100 0l8 41q74 3 110.5 16t58.5 48t42 112l217 811q17 65 17 98q0 31 -14 47t-42.5 22.5t-81.5 8.5l10 41q236 -6 711 -6q295 0 424 6q-51 -131 -78 -241q9 37 -27 -127h-45q3 33 3 62q0 259 -250 259h-7q-72 0 -107 -11.5t-56 -46t-41 -112.5l-102 -381h30q64 0 123 32 t103 84.5t67 113.5h45q-26 -79 -43.5 -148.5t-26.5 -101.5q-23 -87 -53 -250h-45q0 54 -19 106t-63.5 87.5t-116.5 35.5h-12l-104 -389q-18 -70 -18 -100q0 -29 13.5 -44t41.5 -20.5t79 -5.5h27q101 0 181 35t146 114.5t121 213.5h45q-13 -35 -43 -148q-32 -117 -53 -262 q-139 6 -463 6q-475 0 -712 -6z" />
<glyph unicode="&#x436;" horiz-adv-x="2150" d="M-86 186l35 19q13 -29 35 -44.5t47 -15.5q26 0 47 15.5t31 40.5l36 96q44 116 111 191t174.5 117.5t271.5 51.5q-59 30 -59 129q0 39 8.5 81t32.5 130t24 133q0 18 -3 33q-19 76 -101 76q-44 0 -72 -18q68 -15 94.5 -48t26.5 -86q0 -80 -47.5 -146t-122 -104t-149.5 -38 q-77 0 -115.5 38t-38.5 105q0 87 62 163.5t158.5 122.5t193.5 46q125 0 149 -88q6 -19 6 -50q0 -49 -20 -121t-32.5 -123.5t-12.5 -100.5q0 -100 67 -121q41 12 62 12q29 0 29 -21q0 -4 -2 -14q-11 -40 -51 -40q-23 0 -55 14q-39 -23 -63.5 -59.5t-49.5 -102.5l-82 -215 q-38 -100 -85 -159.5t-110.5 -86.5t-153.5 -27q-81 0 -133.5 22t-86 68.5t-56.5 124.5zM549 0l10 41q71 3 107 16t58 48.5t42 111.5l215 811q17 65 17 98q0 31 -14 47t-42.5 22.5t-81.5 8.5l10 41q120 -6 375 -6q229 0 373 6l-10 -41q-75 -3 -111.5 -16t-58 -47.5 t-41.5 -112.5l-215 -811q-18 -70 -18 -100t13.5 -45.5t42.5 -22t83 -8.5l-9 -41q-126 6 -370 6q-249 0 -375 -6zM1325 647q0 39 51 39q37 0 100 -20q104 12 140.5 85t61 225.5t63.5 209.5q60 88 190 88q106 0 172 -56.5t66 -160.5q0 -68 -29 -122t-81.5 -85t-119.5 -31 q-78 0 -127 42.5t-49 121.5q0 54 23.5 106t66 90.5t97.5 51.5q-12 8 -41 8q-91 0 -137 -78q-30 -49 -55 -192.5t-60.5 -222.5t-132.5 -97q104 -12 172 -33.5t106 -64t38 -113.5q0 -21 -3 -45l-27 -180q-1 -6 -1 -18q0 -50 49 -50q29 0 50.5 22.5t39.5 76.5l34 104h41 l-53 -158q-40 -118 -116.5 -168.5t-192.5 -50.5q-256 0 -256 216q0 35 8 81l39 211q9 44 9 80q0 40 -18 60q-41 -10 -68 -10q-50 0 -50 38z" />
<glyph unicode="&#x437;" horiz-adv-x="1284" d="M-29 266q0 57 26 112.5t78.5 91.5t127.5 36q79 0 126.5 -43t47.5 -123q0 -63 -29.5 -121.5t-79.5 -98.5t-110 -52q62 -45 186 -45q120 0 212.5 42t145 122.5t52.5 191.5q0 59 -27 118t-79 100.5t-124 49.5q-72 -33 -104 -29q-15 0 -24 7.5t-9 20.5q0 39 58 39 q30 0 67 -11q75 15 142 63.5t107 116.5t40 139q0 89 -44.5 127.5t-129.5 38.5q-108 0 -180.5 -52.5t-116.5 -132t-90 -200.5h-45q93 303 118 471h43q-6 -36 -6 -60q0 -58 31 -58q16 0 35 12q80 49 132.5 75.5t120 43t156.5 16.5q117 0 207.5 -28.5t141.5 -85t51 -136.5 q0 -94 -95 -170.5t-247 -125t-320 -62.5q276 3 444.5 -62t168.5 -221q0 -114 -104.5 -208.5t-272 -149t-346.5 -54.5q-237 0 -369 95q-113 82 -113 200z" />
<glyph unicode="&#x438;" horiz-adv-x="1769" d="M-98 0l10 41q71 3 107 16t58 48.5t42 111.5l215 811q17 65 17 98q0 31 -14 47t-42.5 22.5t-81.5 8.5l10 41q120 -6 383 -6q219 0 365 6l-10 -41q-76 -3 -112.5 -16t-57.5 -48t-41 -112l-203 -764l706 804q8 38 8 59q0 30 -14 46t-43 22.5t-82 8.5l11 41q122 -6 360 -6 q261 0 387 6l-10 -41q-75 -3 -111.5 -16t-58 -48t-41.5 -112l-215 -811q-18 -70 -18 -100t13.5 -45.5t42.5 -22t83 -8.5l-9 -41q-121 6 -385 6q-236 0 -362 -6l8 41q74 3 110.5 16t58.5 48t42 112l202 764l-704 -802q-9 -38 -9 -62q0 -30 13.5 -45.5t42.5 -22t82 -8.5 l-8 -41q-126 6 -362 6q-257 0 -383 -6z" />
<glyph unicode="&#x439;" horiz-adv-x="1769" d="M-98 0l10 41q71 3 107 16t58 48.5t42 111.5l215 811q17 65 17 98q0 31 -14 47t-42.5 22.5t-81.5 8.5l10 41q120 -6 383 -6q219 0 365 6l-10 -41q-76 -3 -112.5 -16t-57.5 -48t-41 -112l-203 -764l706 804q8 38 8 59q0 30 -14 46t-43 22.5t-82 8.5l11 41q122 -6 360 -6 q261 0 387 6l-10 -41q-75 -3 -111.5 -16t-58 -48t-41.5 -112l-215 -811q-18 -70 -18 -100t13.5 -45.5t42.5 -22t83 -8.5l-9 -41q-121 6 -385 6q-236 0 -362 -6l8 41q74 3 110.5 16t58.5 48t42 112l202 764l-704 -802q-9 -38 -9 -62q0 -30 13.5 -45.5t42.5 -22t82 -8.5 l-8 -41q-126 6 -362 6q-257 0 -383 -6zM625 1552q0 52 27 93t75 64.5t109 23.5q94 0 144.5 -37t50.5 -111q0 -58 -48.5 -108.5t-119.5 -71.5q57 -29 196 -29q163 1 303 77.5t238 205.5l31 -23q-113 -154 -269 -228.5t-313 -74.5q-130 0 -225.5 26.5t-147 76t-51.5 116.5z " />
<glyph unicode="&#x43a;" horiz-adv-x="1546" d="M-98 0l10 41q71 3 107 16t58 48.5t42 111.5l215 811q17 65 17 98q0 31 -14 47t-42.5 22.5t-81.5 8.5l10 41q120 -6 383 -6q220 0 365 6l-10 -41q-76 -3 -112.5 -16t-57.5 -48t-41 -112l-215 -811q-18 -70 -18 -100t13.5 -45.5t42.5 -22t82 -8.5l-8 -41q-126 6 -362 6 q-257 0 -383 -6zM678 647q0 39 50 39q37 0 100 -20q110 12 159.5 94.5t91 231.5t76.5 194q40 50 84 69t107 19q107 0 172 -56t65 -157q0 -69 -29 -124.5t-80 -86.5t-114 -31q-85 0 -133.5 42.5t-48.5 123.5q0 53 24 105.5t66.5 90.5t95.5 50q-12 8 -41 8q-45 0 -77 -18.5 t-60 -59.5q-27 -39 -66 -179t-87 -224.5t-147 -106.5q112 -13 182.5 -33.5t111 -63.5t40.5 -118q0 -20 -3 -43l-27 -180q-1 -7 -1 -18q0 -50 48 -50q30 0 51 22.5t39 76.5l35 104h41l-53 -158q-40 -118 -117 -168.5t-193 -50.5q-255 0 -255 215q0 34 8 82l38 211q9 44 9 80 q0 45 -23 66q-56 -16 -89 -16q-50 0 -50 38z" />
<glyph unicode="&#x43b;" horiz-adv-x="1487" d="M-115 190q0 64 30.5 113.5t83 76t116.5 26.5q83 0 132.5 -40.5t49.5 -111.5q0 -60 -27.5 -109t-76 -80.5t-109.5 -41.5q22 -11 53 -11q83 0 142 56q97 90 199 336t194 624q17 66 17 99q0 31 -14 46.5t-42.5 22t-81.5 8.5l10 41q64 -6 191 -6q11 0 46 3t74 3 q114 0 206.5 -3t133.5 -3q232 0 385 6l-10 -41q-75 -3 -111.5 -16t-58 -48t-41.5 -112l-215 -811q-17 -65 -17 -98q0 -31 14 -47t42.5 -22.5t81.5 -8.5l-8 -41q-132 6 -383 6q-243 0 -363 -6l11 41q71 3 107 16t58 48.5t41 111.5l216 811q17 68 17 102q0 43 -22.5 58.5 t-74.5 15.5h-9q-42 0 -70 -14t-50 -52t-39 -110q-79 -344 -185.5 -616t-216.5 -369q-80 -72 -186 -72q-71 0 -125.5 29t-84.5 79t-30 111z" />
<glyph unicode="&#x43c;" horiz-adv-x="1837" d="M-98 0l8 41q68 3 109.5 24.5t64 60t39.5 101.5l213 801q17 65 17 98q0 31 -14 47t-42.5 22.5t-81.5 8.5l10 41q65 -6 183 -6q168 0 294 6l151 -882l617 876h99q224 0 379 6l-11 -41q-75 -3 -111.5 -16t-58 -48t-41.5 -112l-215 -811q-17 -65 -17 -98q0 -31 13.5 -47 t42.5 -22.5t82 -8.5l-8 -41q-150 6 -377 6q-252 0 -368 -6l8 41q75 3 111 16t57.5 48t42.5 112l180 667l-631 -894q-32 4 -73 4t-74 -4l-155 905l-177 -668q-13 -47 -13 -77q0 -53 43 -79.5t150 -29.5l-8 -41q-73 6 -244 6q-127 0 -194 -6z" />
<glyph unicode="&#x43d;" horiz-adv-x="1729" d="M-98 0l10 41q71 3 107 16t58 48.5t42 111.5l215 811q17 65 17 98q0 31 -14 47t-42.5 22.5t-81.5 8.5l10 41q120 -6 383 -6q220 0 365 6l-10 -41q-76 -3 -112.5 -16t-57.5 -48t-41 -112l-101 -381h452l101 381q18 65 18 99q0 30 -14 46t-43 22.5t-82 8.5l11 41 q123 -6 360 -6q261 0 387 6l-10 -41q-75 -3 -111.5 -16t-58 -48t-41.5 -112l-215 -811q-18 -70 -18 -100t13.5 -45.5t42.5 -22t83 -8.5l-8 -41q-123 6 -386 6q-236 0 -362 -6l8 41q74 3 110.5 16t58.5 48t42 112l103 389h-452l-103 -389q-18 -70 -18 -100t13.5 -45.5 t42.5 -22t82 -8.5l-8 -41q-126 6 -362 6q-257 0 -383 -6z" />
<glyph unicode="&#x43e;" horiz-adv-x="1661" d="M53 465q0 185 120.5 374t335 312t482.5 123q188 0 329 -54.5t219.5 -165t78.5 -274.5q0 -185 -120.5 -374t-335 -312t-482.5 -123q-188 0 -329 54.5t-219.5 165t-78.5 274.5zM498 436q0 -221 53.5 -324.5t146.5 -103.5q133 0 242.5 116.5t171.5 302t62 382.5 q0 221 -54 324.5t-147 103.5q-133 0 -242 -116.5t-171 -302t-62 -382.5z" />
<glyph unicode="&#x43f;" horiz-adv-x="1729" d="M-98 0l10 41q71 3 107 16t58 48.5t42 111.5l215 811q17 65 17 98q0 31 -14 47t-42.5 22.5t-81.5 8.5l10 41q120 -6 383 -6q43 0 183 3t239 3h4q87 0 232 -3t188 -3q261 0 387 6l-10 -41q-75 -3 -111.5 -16t-58 -48t-41.5 -112l-215 -811q-18 -70 -18 -100t13.5 -45.5 t42.5 -22t83 -8.5l-8 -41q-123 6 -386 6q-236 0 -362 -6l8 41q74 3 110.5 16t58.5 48t42 112l215 811q18 65 18 100q0 31 -14 47.5t-43.5 22.5t-81.5 6h-120q-74 0 -111.5 -13t-58.5 -49t-41 -114l-215 -811q-18 -70 -18 -100t13.5 -45.5t42.5 -22t82 -8.5l-8 -41 q-126 6 -362 6q-257 0 -383 -6z" />
<glyph unicode="&#x440;" horiz-adv-x="1376" d="M-98 0l8 41q74 3 110.5 16t58.5 48t42 112l213 811q18 72 18 97q0 39 -30 57.5t-107 21.5l10 41q120 -6 348 -6q83 0 171 2t139 2q547 0 547 -276q0 -125 -103.5 -229t-291 -167.5t-428.5 -69.5l-77 -284q-15 -62 -15 -89q0 -44 30.5 -63t109.5 -24l-8 -41q-141 6 -364 6 q-258 0 -381 -6zM618 543q134 11 218.5 85.5t122.5 183.5t38 230q0 89 -23.5 125.5t-84.5 36.5q-42 0 -66 -16.5t-39 -52t-34 -107.5z" />
<glyph unicode="&#x441;" horiz-adv-x="1409" d="M45 401q0 207 120.5 410t340.5 333t502 130q111 0 180 -35.5t123 -97.5q15 -18 29 -18q38 0 83 122h45q-64 -189 -133 -471h-45q13 114 13 158q0 78 -33 145q-37 78 -111.5 119t-169.5 41q-135 0 -253.5 -135.5t-189.5 -341t-71 -400.5q0 -169 50 -260.5t137 -91.5 q94 0 194 42t174 118q54 56 93 126t91 198h46q-97 -355 -121 -492h-45q6 44 6 70q0 52 -26 52q-16 0 -42 -18q-93 -65 -182.5 -99t-206.5 -34q-186 0 -320.5 50t-206 146.5t-71.5 233.5z" />
<glyph unicode="&#x442;" horiz-adv-x="1454" d="M115 954q0 63 35.5 126t109.5 108q109 65 297 65q76 0 159.5 -7.5t268.5 -28.5t289 -21q142 0 199 21q-45 29 -74 80t-29 112q0 57 24.5 102.5t70 72t106.5 26.5q60 0 106.5 -24.5t71.5 -65t25 -86.5q0 -60 -29.5 -112t-104.5 -97q-113 -70 -383 -70q-31 0 -68 2 l-263 -919q-19 -65 -19 -99q0 -35 17 -55t54 -30t101 -13l-8 -41q-144 6 -428 6q-272 0 -401 -6l8 41q88 3 135.5 20.5t74.5 57.5t50 119l276 962q-151 17 -237 17q-160 0 -238 -56q82 -11 134.5 -64t52.5 -134q0 -58 -26.5 -105t-72 -73.5t-100.5 -26.5q-57 0 -99 27.5 t-63.5 72.5t-21.5 96z" />
<glyph unicode="&#x443;" horiz-adv-x="1360" d="M102 182q0 64 31 113t83.5 75.5t115.5 26.5q84 0 133 -40t49 -111q0 -90 -58.5 -150t-152.5 -76q20 -10 64 -10q93 0 160.5 49.5t139.5 156.5l-415 853q-25 50 -41 74.5t-36.5 39.5t-53.5 21l10 41q123 -6 363 -6q192 0 309 6l-10 -41q-67 -3 -98.5 -21t-31.5 -55 q0 -35 29 -96l232 -474l315 419q51 68 51 117t-50.5 76.5t-137.5 33.5l10 41q58 -6 287 -6q88 0 153 6l-10 -41q-49 -14 -87 -39.5t-78.5 -71t-104.5 -132.5l-559 -751q-52 -79 -99.5 -130t-108 -80t-138.5 -29q-83 0 -143 27t-91 74.5t-31 109.5z" />
<glyph unicode="&#x444;" horiz-adv-x="2081" d="M35 479q0 130 121.5 251.5t358.5 203t565 92.5q64 61 141.5 115t136 89t221.5 128q-126 -21 -214.5 -53.5t-222.5 -97t-235 -64.5q-63 0 -113 14t-130.5 47t-131.5 33q-49 0 -77.5 -18.5t-28.5 -55.5q0 -58 113 -100l-19 -41q-112 41 -171.5 99t-59.5 145q0 64 33.5 118 t100.5 86.5t163 32.5q124 0 245 -45t199.5 -68.5t206.5 -23.5q74 0 189 8t200 23q19 28 51 62t61 34q14 0 25 -10q9 -9 9 -19q0 -37 -127 -90q-161 -123 -264 -353q212 -15 362 -62t228.5 -123.5t78.5 -178.5q0 -126 -109.5 -241.5t-325.5 -195.5t-520 -99l-38 -131 q-33 -109 -115.5 -194t-210.5 -133t-291 -48q-145 0 -236 43t-91 143q0 77 56 125.5t159 48.5q90 0 147 -39t57 -112q0 -114 -133 -170q15 -4 39 -4q75 0 114 78t75 207.5t52 188.5q-305 25 -474.5 116t-169.5 239zM479 481q0 -125 55.5 -197.5t160.5 -103.5l122 414 q67 228 221 391q-181 -19 -307 -90t-189 -178t-63 -236zM1108 164q176 25 287 99t161 176t50 218q0 134 -63 210t-184 104q-47 -115 -97 -285z" />
<glyph unicode="&#x445;" horiz-adv-x="1548" d="M-76 209q0 71 30 124.5t81 83t112 29.5q78 0 123 -45.5t45 -126.5q0 -60 -27 -112.5t-75.5 -88.5t-110.5 -50q17 -17 54 -17q64 0 139 51q67 46 153 149.5t170 248.5l-53 473q-10 84 -37.5 128t-83.5 44q-48 0 -77 -27.5t-48 -79.5l-32 -96h-41l43 129q42 128 121.5 188 t199.5 60q175 0 254.5 -84t96.5 -236l10 -91q125 240 239 339q85 72 193 72q66 0 116 -31.5t77.5 -85.5t27.5 -121q0 -71 -29.5 -124.5t-80.5 -83t-113 -29.5q-78 0 -123 45.5t-45 126.5q0 92 59 161t154 91q-16 16 -53 16q-73 0 -136 -51q-59 -46 -131.5 -149t-146.5 -249 l53 -473q10 -87 37 -129.5t84 -42.5q50 0 78.5 26t44.5 73l35 104h41l-54 -158q-35 -104 -109.5 -161.5t-187.5 -57.5q-183 0 -265.5 82.5t-98.5 237.5l-11 97q-67 -111 -142.5 -203t-145.5 -146q-85 -68 -193 -68q-66 0 -116 31.5t-77.5 85.5t-27.5 121z" />
<glyph unicode="&#x446;" horiz-adv-x="1743" d="M-100 0l10 41q75 3 111.5 16t58 48t41.5 112l215 811q17 66 17 99q0 30 -13.5 46t-42.5 22.5t-82 8.5l8 41q123 -6 385 -6q237 0 363 6l-8 -41q-75 -3 -111.5 -16t-58 -48t-41.5 -112l-215 -811q-18 -64 -18 -100q0 -45 30.5 -60.5t107.5 -15.5h121q74 0 111 13t58.5 49 t41.5 114l215 811q18 70 18 100t-13.5 45.5t-42.5 22t-83 8.5l9 41q126 -6 362 -6q257 0 383 6l-10 -41q-71 -3 -107 -16t-58 -48.5t-42 -111.5l-215 -811q-17 -65 -17 -99q0 -46 30.5 -61.5t107.5 -15.5h63q-38 -100 -90 -303q-11 -47 -26 -127h-46q4 56 4 80 q0 117 -38.5 185t-121 98t-220.5 30q-54 0 -153 -2t-171 -2h-20q-87 0 -232 3t-188 3q-261 0 -387 -6z" />
<glyph unicode="&#x447;" horiz-adv-x="1612" d="M157 736q0 55 23 149l43 170q13 49 13 80q0 35 -16 48.5t-50 18.5l10 43q240 -8 318 -8q75 0 327 8l-10 -43q-53 0 -86 -14t-53.5 -45.5t-36.5 -87.5l-64 -226q-25 -89 -25 -145q0 -72 42.5 -106.5t136.5 -34.5q59 0 126.5 11.5t112.5 32.5l119 441q19 70 19 101 q0 29 -14 44.5t-42.5 22t-80.5 8.5l10 41q117 -6 364 -6q251 0 383 6l-10 -41q-75 -3 -111.5 -16t-58.5 -48t-43 -112l-219 -811q-18 -64 -18 -100q0 -30 13.5 -45.5t42 -22t81.5 -8.5l-10 -41q-123 6 -385 6q-266 0 -404 -6l10 41q92 3 137 16t70.5 48t46.5 112l90 334 q-79 -31 -182.5 -52.5t-216.5 -21.5q-219 0 -328 94q-39 35 -56.5 74.5t-17.5 90.5z" />
<glyph unicode="&#x448;" horiz-adv-x="2517" d="M-100 0l10 41q75 3 111.5 16t58 48t41.5 112l215 811q17 66 17 99q0 30 -13.5 46t-42.5 22.5t-82 8.5l8 41q123 -6 375 -6q232 0 352 6l-8 -41q-66 -3 -99 -16t-53 -48.5t-40 -111.5l-211 -811q-18 -67 -18 -104q0 -43 26 -57.5t90 -14.5h121q64 0 97.5 13t54 49 t40.5 114l209 811q21 76 21 107q0 36 -25.5 50.5t-91.5 18.5l8 41q117 -6 356 -6q231 0 351 6l-9 -41q-65 -3 -97.5 -16t-52.5 -48t-40 -112l-215 -811q-17 -65 -17 -100q0 -44 27 -60t90 -16h121q65 0 98.5 13.5t52.5 49t40 113.5l215 811q17 66 17 99q0 43 -26.5 58.5 t-91.5 18.5l8 41q120 -6 353 -6q247 0 372 6l-10 -41q-71 -3 -107 -16t-58 -48.5t-42 -111.5l-215 -811q-17 -65 -17 -98q0 -31 14 -47t42.5 -22.5t81.5 -8.5l-10 -41q-120 6 -346 6q-90 0 -215.5 -3t-218.5 -3q-103 0 -230 3t-178 3q-50 0 -186.5 -3t-239.5 -3 q-94 0 -219.5 3t-216.5 3q-226 0 -352 -6z" />
<glyph unicode="&#x449;" horiz-adv-x="2527" d="M-102 0l10 41q75 3 111.5 16t58 48t41.5 112l217 811q17 66 17 99q0 30 -13.5 46t-42.5 22.5t-82 8.5l8 41q123 -6 375 -6q232 0 352 6l-8 -41q-66 -3 -98.5 -16t-52 -48t-39.5 -112l-217 -811q-17 -66 -17 -100q0 -44 26.5 -60t90.5 -16h121q65 0 98 13.5t52 49 t40 113.5l217 811q17 66 17 100q0 42 -26 57.5t-91 18.5l8 41q117 -6 356 -6q231 0 351 6l-9 -41q-65 -3 -97.5 -16t-52.5 -48t-40 -112l-217 -811q-17 -65 -17 -100q0 -44 27 -60t90 -16h121q65 0 98.5 13.5t52.5 49t40 113.5l217 811q17 66 17 99q0 43 -26.5 58.5 t-91.5 18.5l8 41q120 -6 353 -6q247 0 372 6l-10 -41q-71 -3 -107 -16t-58 -48.5t-42 -111.5l-217 -811q-17 -65 -17 -99q0 -46 30.5 -61.5t107.5 -15.5h64q-44 -115 -90 -303q-12 -45 -27 -127h-45q3 40 3 77q0 118 -38.5 186.5t-121 99t-220.5 30.5q-36 0 -135 -2t-187 -2 q-95 0 -222.5 3t-178.5 3q-49 0 -186 -3t-242 -3q-92 0 -217.5 3t-216.5 3q-226 0 -352 -6z" />
<glyph unicode="&#x44a;" horiz-adv-x="1714" d="M111 924q0 70 37.5 139t109.5 113q63 38 142 53.5t145 15.5q55 0 165.5 -3t196.5 -3q232 0 385 6l-10 -41q-75 -3 -111.5 -16t-58 -48t-41.5 -112l-80 -299h68q206 0 332 -41t179.5 -107t53.5 -147q0 -131 -85.5 -229.5t-239.5 -151.5t-355 -53q-48 0 -162 3t-190 3 q-250 0 -373 -6l8 41q74 3 111 16t58.5 48t41.5 112l217 811q18 65 18 100q0 31 -14 47.5t-43 22.5t-81 6q-68 0 -130 -13.5t-98 -41.5q53 -8 95.5 -37t67 -75.5t24.5 -104.5q0 -60 -26.5 -107.5t-72 -73.5t-100.5 -26q-57 0 -99 27t-63.5 72.5t-21.5 99.5zM834 108 q0 -61 49 -61q152 0 231.5 102t79.5 277q0 119 -43.5 193.5t-144.5 74.5h-24l-128 -477q-20 -71 -20 -109z" />
<glyph unicode="&#x44b;" horiz-adv-x="2255" d="M-100 0l8 41q74 3 110.5 16t58.5 48t42 112l217 811q18 63 18 99q0 30 -14 46t-43 22.5t-82 8.5l10 41q114 -6 363 -6q231 0 385 6l-10 -41q-75 -3 -111.5 -16t-58 -47.5t-41.5 -112.5l-80 -299h67q207 0 333 -41t179.5 -107t53.5 -147q0 -131 -85.5 -229.5 t-239.5 -151.5t-355 -53q-49 0 -163 3t-190 3q-249 0 -372 -6zM515 107q0 -60 48 -60q152 0 231.5 102t79.5 277q0 119 -43.5 193.5t-144.5 74.5h-23l-128 -477q-20 -71 -20 -110zM1297 0l10 41q71 3 107 16t58 48.5t42 111.5l215 811q17 65 17 98q0 31 -14 47t-42.5 22.5 t-81.5 8.5l10 41q114 -6 363 -6q230 0 385 6l-10 -41q-76 -3 -112.5 -16t-57.5 -48t-41 -112l-215 -811q-18 -70 -18 -100t13.5 -45.5t42.5 -22t82 -8.5l-8 -41q-132 6 -383 6q-242 0 -362 -6z" />
<glyph unicode="&#x44c;" horiz-adv-x="1395" d="M-100 0l8 41q74 3 110.5 16t58.5 48t42 112l217 811q18 63 18 99q0 30 -14 46t-43 22.5t-82 8.5l10 41q114 -6 363 -6q231 0 385 6l-10 -41q-75 -3 -111.5 -16t-58 -47.5t-41.5 -112.5l-80 -299h67q207 0 333 -41t179.5 -107t53.5 -147q0 -131 -85.5 -229.5 t-239.5 -151.5t-355 -53q-49 0 -163 3t-190 3q-249 0 -372 -6zM515 107q0 -60 48 -60q152 0 231.5 102t79.5 277q0 119 -43.5 193.5t-144.5 74.5h-23l-128 -477q-20 -71 -20 -110z" />
<glyph unicode="&#x44d;" horiz-adv-x="1430" d="M-45 0q6 18 29 82.5t41 132.5t30 139h45q4 -89 54 -186q39 -79 112.5 -119.5t167.5 -40.5q124 0 232 90t180 251.5t94 369.5q-64 -118 -115 -188.5t-103 -105t-112 -34.5q-48 0 -86.5 19t-115 74t-144.5 55q-41 0 -79 -20.5t-79 -69.5l-26 18q100 192 186.5 283.5 t188.5 91.5q50 0 91 -18.5t125.5 -74t157.5 -55.5q34 0 60 16.5t55 66.5q4 53 4 108q0 170 -49.5 261t-136.5 91q-94 0 -194 -42t-175 -118q-47 -42 -81 -93t-83 -148h-45q84 319 101 409h45q-6 -42 -6 -69q0 -53 26 -53q15 0 41 18q94 65 182.5 99t206.5 34 q186 0 320.5 -57.5t206 -168t71.5 -266.5q0 -203 -111.5 -390t-326.5 -304t-510 -117q-107 0 -177 36.5t-132 101.5q-15 15 -31 15q-46 0 -90 -124h-45z" />
<glyph unicode="&#x44e;" horiz-adv-x="2359" d="M-98 0l10 41q71 3 107 16t58 48.5t42 111.5l215 811q17 65 17 98q0 31 -14 47t-42.5 22.5t-81.5 8.5l10 41q114 -6 363 -6q230 0 385 6l-10 -41q-76 -3 -112.5 -16t-57.5 -48t-41 -112l-101 -381h208q49 162 170.5 306t302.5 232.5t396 88.5q176 0 307.5 -54.5t205 -165 t73.5 -274.5q0 -185 -115 -374t-320.5 -312t-461.5 -123q-175 0 -307 54.5t-205.5 165t-73.5 274.5q0 69 17 141h-208l-103 -389q-18 -70 -18 -100t13.5 -45.5t42.5 -22t82 -8.5l-8 -41q-132 6 -383 6q-242 0 -362 -6zM1274 436q0 -221 43 -324.5t117 -103.5 q121 0 220.5 116.5t156.5 302t57 382.5q0 221 -43 324.5t-117 103.5q-121 0 -220.5 -116.5t-156.5 -302t-57 -382.5z" />
<glyph unicode="&#x44f;" horiz-adv-x="1511" d="M-113 186l35 19q14 -30 36 -45t46 -15q26 0 47.5 15.5t30.5 40.5l37 96q39 92 96.5 154.5t146.5 102t219 54.5q-203 25 -293.5 102.5t-90.5 182.5q0 116 87 195t244.5 118t368.5 39q48 0 162 -3t190 -3q250 0 373 6l-8 -41q-74 -3 -110.5 -16t-58.5 -48t-42 -112 l-217 -811q-18 -63 -18 -99q0 -30 14 -46t43 -22.5t82 -8.5l-11 -41q-113 6 -362 6q-232 0 -385 -6l10 41q75 3 111 16t57.5 48t42.5 112l102 381h-110h-17q-57 -17 -88.5 -47t-62.5 -92l-82 -215q-38 -100 -85 -159.5t-110.5 -86.5t-152.5 -27q-81 0 -134 22t-86.5 68.5 t-56.5 124.5zM627 860q0 -102 43.5 -164.5t144.5 -62.5h66l106 395q20 71 20 109q0 61 -49 61q-162 0 -246.5 -90.5t-84.5 -247.5z" />
<glyph unicode="&#x451;" horiz-adv-x="1319" d="M-100 0l8 41q74 3 110.5 16t58.5 48t42 112l217 811q17 65 17 98q0 31 -14 47t-42.5 22.5t-81.5 8.5l10 41q236 -6 711 -6q295 0 424 6q-51 -131 -78 -241q9 37 -27 -127h-45q3 33 3 62q0 259 -250 259h-7q-72 0 -107 -11.5t-56 -46t-41 -112.5l-102 -381h30q64 0 123 32 t103 84.5t67 113.5h45q-26 -79 -43.5 -148.5t-26.5 -101.5q-23 -87 -53 -250h-45q0 54 -19 106t-63.5 87.5t-116.5 35.5h-12l-104 -389q-18 -70 -18 -100q0 -29 13.5 -44t41.5 -20.5t79 -5.5h27q101 0 181 35t146 114.5t121 213.5h45q-13 -35 -43 -148q-32 -117 -53 -262 q-139 6 -463 6q-475 0 -712 -6zM421 1511q0 68 28 113t73.5 66.5t100.5 21.5q79 0 116.5 -42.5t37.5 -117.5q0 -67 -29 -111t-75.5 -64.5t-100.5 -20.5q-78 0 -114.5 41t-36.5 114zM949 1511q0 100 58.5 150.5t144.5 50.5q78 0 115.5 -42.5t37.5 -117.5q0 -67 -29 -111 t-75.5 -64.5t-99.5 -20.5q-78 0 -115 41t-37 114z" />
<glyph unicode="&#x452;" horiz-adv-x="2066" d="M117 954q0 63 35.5 126t109.5 108q109 65 297 65q76 0 158.5 -7.5t268.5 -28.5t292 -21q140 0 197 21q-45 29 -74 80t-29 114q0 56 24.5 101.5t70.5 71.5t108 26q60 0 105.5 -25t70.5 -67t25 -93q0 -56 -33.5 -109t-102.5 -91q-124 -70 -352 -70q-69 0 -151 6l-135 -517 q95 57 225 90.5t270 33.5q147 0 257.5 -38.5t171.5 -113.5t61 -182q0 -135 -94.5 -240.5t-248 -164t-323.5 -58.5q-84 0 -159.5 23t-124 76t-48.5 137q0 72 39 131t103 93t137 34t112 -35t39 -102q0 -68 -38 -125t-99.5 -96.5t-130.5 -57.5q61 -26 127 -26q83 0 144.5 47.5 t94.5 130.5t33 186q0 291 -274 291q-77 0 -156 -22t-131 -60l-162 -619q-119 29 -327 29q-139 0 -289 -6l10 41q84 2 134 22.5t77.5 60.5t44.5 107l257 975q-107 11 -181 11q-162 0 -240 -56q82 -11 134.5 -64t52.5 -134q0 -58 -26.5 -105t-72 -73.5t-100.5 -26.5 q-57 0 -99 27.5t-63.5 72.5t-21.5 96z" />
<glyph unicode="&#x453;" horiz-adv-x="1194" d="M-100 0l8 41q74 3 110.5 16t58.5 48t42 112l217 811q17 65 17 98q0 31 -14 47t-42.5 22.5t-81.5 8.5l10 41q224 -6 670 -6q295 0 424 6q-42 -108 -80 -254q-24 -96 -39 -176h-45q3 36 3 70q0 149 -62.5 231t-173.5 82h-7q-56 0 -84.5 -11.5t-46 -46.5t-32.5 -112 l-217 -811q-15 -57 -15 -91t17 -51.5t53.5 -24.5t105.5 -9l-8 -41q-138 6 -407 6q-258 0 -381 -6zM569 1401q84 74 166 162t122.5 127.5t92.5 66.5q43 24 94 24q88 0 127 -71q15 -29 15 -55q0 -76 -107 -135q-40 -22 -88 -36t-174 -43.5t-234 -64.5z" />
<glyph unicode="&#x454;" horiz-adv-x="1413" d="M45 401q0 207 120.5 410t340.5 333t502 130q111 0 180 -35.5t123 -97.5q15 -18 29 -18q38 0 83 122h45q-8 -23 -30.5 -87t-40 -130t-29.5 -137h-45q-3 55 -17 98t-36 88q-39 79 -113 119.5t-168 40.5q-115 0 -219.5 -100.5t-178 -261.5t-101.5 -337q61 114 111 182 t101.5 101t110.5 33q48 0 86.5 -18.5t115 -73.5t144.5 -55q41 0 79.5 20t78.5 70l26 -19q-99 -191 -186 -283t-188 -92q-50 0 -91.5 18.5t-126 74t-157.5 55.5q-34 0 -59 -15.5t-54 -61.5q-6 -59 -6 -114q0 -169 50 -260.5t137 -91.5q94 0 194 42t174 118q48 42 82 93.5 t82 148.5h45q-13 -52 -39.5 -153.5t-40 -158.5t-20.5 -98h-45q6 44 6 70q0 52 -26 52q-16 0 -42 -18q-93 -65 -182.5 -99t-206.5 -34q-186 0 -320.5 50t-206 146.5t-71.5 233.5z" />
<glyph unicode="&#x455;" horiz-adv-x="1305" d="M-72 -14q68 162 140 491h41q-19 -99 -19 -151q0 -142 93.5 -225t277.5 -83q94 0 160.5 45t66.5 138q0 74 -51 146.5t-176 176.5q-134 112 -193 199.5t-59 187.5q0 123 83.5 204.5t218 120t288.5 38.5q188 0 315 -74q11 -6 33 -19.5t40 -21.5t30 -8q19 0 33.5 25t35.5 84 h41q-78 -195 -121 -418h-41q13 56 13 114q0 78 -42.5 141t-116 99.5t-161.5 36.5q-75 0 -126.5 -23.5t-77 -62.5t-25.5 -86q0 -51 20 -94t72.5 -98.5t157.5 -145.5q115 -99 168.5 -151.5t83.5 -109t30 -126.5q0 -123 -90 -205t-237 -121t-320 -39q-116 0 -198 20t-175 68 q-65 37 -90 37q-23 0 -39.5 -24t-42.5 -86h-41z" />
<glyph unicode="&#x456;" horiz-adv-x="860" d="M-98 0l10 41q71 3 107 16t58 48.5t42 111.5l215 811q17 65 17 98q0 31 -14 47t-42.5 22.5t-81.5 8.5l10 41q114 -6 363 -6q230 0 385 6l-10 -41q-76 -3 -112.5 -16t-57.5 -48t-41 -112l-215 -811q-18 -70 -18 -100t13.5 -45.5t42.5 -22t82 -8.5l-8 -41q-132 6 -383 6 q-242 0 -362 -6z" />
<glyph unicode="&#x457;" horiz-adv-x="860" d="M-98 0l10 41q71 3 107 16t58 48.5t42 111.5l215 811q17 65 17 98q0 31 -14 47t-42.5 22.5t-81.5 8.5l10 41q114 -6 363 -6q230 0 385 6l-10 -41q-76 -3 -112.5 -16t-57.5 -48t-41 -112l-215 -811q-18 -70 -18 -100t13.5 -45.5t42.5 -22t82 -8.5l-8 -41q-132 6 -383 6 q-242 0 -362 -6zM230 1511q0 68 28 113t73.5 66.5t100.5 21.5q79 0 116.5 -42.5t37.5 -117.5q0 -67 -29 -111t-75.5 -64.5t-100.5 -20.5q-78 0 -114.5 41t-36.5 114zM758 1511q0 100 58.5 150.5t144.5 50.5q78 0 115.5 -42.5t37.5 -117.5q0 -67 -29 -111t-75.5 -64.5 t-99.5 -20.5q-78 0 -115 41t-37 114z" />
<glyph unicode="&#x458;" horiz-adv-x="1477" d="M-25 -199q0 77 56.5 125.5t158.5 48.5q91 0 148 -39t57 -112q0 -114 -133 -170q19 -4 60 -4q58 0 97.5 31t67 87.5t54.5 147.5l139 463q16 55 37 104h-260l6 41h272q64 137 160.5 234.5t196 161t315.5 186.5q-131 -35 -268 -99.5t-208.5 -92t-160.5 -27.5q-52 0 -100 14 t-130.5 47t-125.5 33q-51 0 -84 -26t-33 -78q0 -147 283 -164l-5 -37q-206 12 -325 96t-119 229q0 132 82.5 209.5t243.5 77.5q145 0 271.5 -66t203 -99t201.5 -33q79 0 172 17.5t163 53.5q79 119 129 119q17 0 29 -12q11 -11 11 -23q0 -46 -150 -106q-88 -71 -149 -158 t-105.5 -193t-92.5 -264h206l-7 -41h-211l-4 -12l-143 -481q-32 -108 -115 -193t-209 -133.5t-282 -48.5q-196 0 -298 42t-102 144z" />
<glyph unicode="&#x459;" horiz-adv-x="2025" d="M-115 190q0 64 30.5 113.5t83 76t116.5 26.5q83 0 132.5 -40.5t49.5 -111.5q0 -60 -27.5 -109t-76 -80.5t-109.5 -41.5q22 -11 53 -11q83 0 142 56q96 89 196.5 333.5t196.5 626.5q17 66 17 99q0 31 -14 46.5t-42.5 22t-81.5 8.5l10 41q64 -6 191 -6q11 0 46 3t74 3 q114 0 206.5 -3t133.5 -3q232 0 385 6l-10 -41q-75 -3 -111.5 -16t-58 -48t-41.5 -112l-80 -299h68q206 0 332 -41t179.5 -107t53.5 -147q0 -131 -85.5 -229.5t-239.5 -151.5t-355 -53q-48 0 -162 3t-190 3q-250 0 -373 -6l8 41q74 3 111 16t58.5 48t41.5 112l218 811 q17 68 17 102q0 43 -22.5 58.5t-74.5 15.5h-9q-42 0 -70 -14t-50 -52t-39 -110q-79 -344 -185.5 -616t-216.5 -369q-80 -72 -186 -72q-71 0 -125.5 29t-84.5 79t-30 111zM1140 107q0 -60 48 -60q152 0 231.5 102t79.5 277q0 119 -43.5 193.5t-144.5 74.5h-24l-128 -477 q-19 -74 -19 -110z" />
<glyph unicode="&#x45a;" horiz-adv-x="2273" d="M-98 0l10 41q71 3 107 16t58 48.5t42 111.5l215 811q17 65 17 98q0 31 -14 47t-42.5 22.5t-81.5 8.5l10 41q120 -6 383 -6q219 0 365 6l-10 -41q-76 -3 -112.5 -16t-57.5 -48t-41 -112l-101 -381h453l102 381q18 65 18 99q0 30 -14 46t-43 22.5t-82 8.5l11 41 q112 -6 362 -6q232 0 385 6l-10 -41q-75 -3 -111.5 -16t-58 -48t-41.5 -112l-104 -387h92q206 0 332 -35t179.5 -91.5t53.5 -125.5q0 -119 -85.5 -207t-239.5 -135t-355 -47q-48 0 -162 3t-190 3q-250 0 -373 -6l8 41q74 3 110.5 16t58.5 48t42 112l104 389h-453l-103 -389 q-18 -70 -18 -100t13.5 -45.5t42.5 -22t82 -8.5l-8 -41q-126 6 -362 6q-257 0 -383 -6zM1383 108q0 -61 49 -61q151 0 231 89t80 245q0 225 -189 225h-47l-104 -389q-20 -71 -20 -109z" />
<glyph unicode="&#x45b;" horiz-adv-x="1212" d="M-98 0l10 41q71 3 107 16t58 48.5t42 111.5l215 811q17 65 17 98q0 31 -14 47t-42.5 22.5t-81.5 8.5l10 41q120 -6 383 -6q220 0 365 6l-10 -41q-76 -3 -112.5 -16t-57.5 -48t-41 -112l-101 -381h452l101 381q18 65 18 99q0 30 -14 46t-43 22.5t-82 8.5l11 41 q123 -6 360 -6q261 0 387 6l-10 -41q-75 -3 -111.5 -16t-58 -48t-41.5 -112l-215 -811q-18 -70 -18 -100t13.5 -45.5t42.5 -22t83 -8.5l-8 -41q-123 6 -386 6q-236 0 -362 -6l8 41q74 3 110.5 16t58.5 48t42 112l103 389h-452l-103 -389q-18 -70 -18 -100t13.5 -45.5 t42.5 -22t82 -8.5l-8 -41q-126 6 -362 6q-257 0 -383 -6zM156 1245l12 41h827l-12 -41h-827z" />
<glyph unicode="&#x45c;" horiz-adv-x="1546" d="M-98 0l10 41q71 3 107 16t58 48.5t42 111.5l215 811q17 65 17 98q0 31 -14 47t-42.5 22.5t-81.5 8.5l10 41q120 -6 383 -6q220 0 365 6l-10 -41q-76 -3 -112.5 -16t-57.5 -48t-41 -112l-215 -811q-18 -70 -18 -100t13.5 -45.5t42.5 -22t82 -8.5l-8 -41q-126 6 -362 6 q-257 0 -383 -6zM678 647q0 39 50 39q37 0 100 -20q110 12 159.5 94.5t91 231.5t76.5 194q40 50 84 69t107 19q107 0 172 -56t65 -157q0 -69 -29 -124.5t-80 -86.5t-114 -31q-85 0 -133.5 42.5t-48.5 123.5q0 53 24 105.5t66.5 90.5t95.5 50q-12 8 -41 8q-45 0 -77 -18.5 t-60 -59.5q-27 -39 -66 -179t-87 -224.5t-147 -106.5q112 -13 182.5 -33.5t111 -63.5t40.5 -118q0 -20 -3 -43l-27 -180q-1 -7 -1 -18q0 -50 48 -50q30 0 51 22.5t39 76.5l35 104h41l-53 -158q-40 -118 -117 -168.5t-193 -50.5q-255 0 -255 215q0 34 8 82l38 211q9 44 9 80 q0 45 -23 66q-56 -16 -89 -16q-50 0 -50 38zM711 1401q84 74 166 162t122.5 127.5t92.5 66.5q43 24 94 24q88 0 127 -71q15 -29 15 -55q0 -76 -107 -135q-40 -22 -88 -36t-174 -43.5t-234 -64.5z" />
<glyph unicode="&#x45e;" horiz-adv-x="1360" d="M102 182q0 64 31 113t83.5 75.5t115.5 26.5q84 0 133 -40t49 -111q0 -90 -58.5 -150t-152.5 -76q20 -10 64 -10q93 0 160.5 49.5t139.5 156.5l-415 853q-25 50 -41 74.5t-36.5 39.5t-53.5 21l10 41q123 -6 363 -6q192 0 309 6l-10 -41q-67 -3 -98.5 -21t-31.5 -55 q0 -35 29 -96l232 -474l315 419q51 68 51 117t-50.5 76.5t-137.5 33.5l10 41q58 -6 287 -6q88 0 153 6l-10 -41q-49 -14 -87 -39.5t-78.5 -71t-104.5 -132.5l-559 -751q-52 -79 -99.5 -130t-108 -80t-138.5 -29q-83 0 -143 27t-91 74.5t-31 109.5zM426 1552q0 52 27 93 t75 64.5t109 23.5q94 0 144.5 -37t50.5 -111q0 -58 -48.5 -108.5t-119.5 -71.5q57 -29 196 -29q163 1 303 77.5t238 205.5l31 -23q-113 -154 -269 -228.5t-313 -74.5q-130 0 -225.5 26.5t-147 76t-51.5 116.5z" />
<glyph unicode="&#x45f;" horiz-adv-x="1731" d="M-100 0l10 41q75 3 111.5 16t58 48t41.5 112l215 811q17 66 17 99q0 30 -13.5 46t-42.5 22.5t-82 8.5l8 41q123 -6 385 -6q237 0 363 6l-8 -41q-75 -3 -111.5 -16t-58 -48t-41.5 -112l-215 -811q-18 -64 -18 -100q0 -45 30.5 -60.5t107.5 -15.5h121q74 0 111 13t58.5 49 t41.5 114l215 811q18 70 18 100t-13.5 45.5t-42.5 22t-83 8.5l9 41q126 -6 362 -6q257 0 383 6l-10 -41q-71 -3 -107 -16t-58 -48.5t-42 -111.5l-215 -811q-17 -65 -17 -98q0 -31 14 -47t42.5 -22.5t81.5 -8.5l-10 -41q-120 6 -383 6q-41 0 -130 -2q-92 -9 -153.5 -45 t-108.5 -101t-104 -180h-47q5 63 5 103q0 74 -16.5 119.5t-57 71t-113.5 32.5l-121 2q-261 0 -387 -6z" />
<glyph unicode="&#x490;" horiz-adv-x="1079" d="M-98 0l8 41q74 3 110.5 16t58.5 48t42 112l270 1016q17 65 17 98q0 31 -13.5 47t-42.5 22.5t-82 8.5l11 41q127 -6 362 -6q48 0 118.5 3t106.5 3q176 0 300.5 78.5t203.5 243.5h47q-17 -44 -39 -127q-28 -112 -51 -242h-317q-71 0 -106.5 -12t-57 -46.5t-41.5 -111.5 l-270 -1016q-15 -57 -15 -91t17 -51.5t53.5 -24.5t105.5 -9l-8 -41q-138 6 -407 6q-258 0 -381 -6z" />
<glyph unicode="&#x491;" horiz-adv-x="1147" d="M-100 0l8 41q74 3 110.5 16t58.5 48t42 112l217 811q17 65 17 98q0 31 -14 47t-42.5 22.5t-81.5 8.5l10 41q297 -6 322 -6q60 0 150.5 3t138.5 3q175 0 299.5 79t203.5 243h47q-19 -49 -38 -127q-25 -92 -52 -242h-360q-63 0 -94.5 -12t-50.5 -46t-39 -112l-217 -811 q-15 -57 -15 -91t17 -51.5t53.5 -24.5t105.5 -9l-8 -41q-138 6 -407 6q-258 0 -381 -6z" />
<glyph unicode="&#x2000;" horiz-adv-x="993" />
<glyph unicode="&#x2001;" horiz-adv-x="1986" />
<glyph unicode="&#x2002;" horiz-adv-x="993" />
<glyph unicode="&#x2003;" horiz-adv-x="1986" />
<glyph unicode="&#x2004;" horiz-adv-x="662" />
<glyph unicode="&#x2005;" horiz-adv-x="496" />
<glyph unicode="&#x2006;" horiz-adv-x="331" />
<glyph unicode="&#x2007;" horiz-adv-x="331" />
<glyph unicode="&#x2008;" horiz-adv-x="248" />
<glyph unicode="&#x2009;" horiz-adv-x="397" />
<glyph unicode="&#x200a;" horiz-adv-x="110" />
<glyph unicode="&#x2010;" d="M109 455l55 202h739l-55 -202h-739z" />
<glyph unicode="&#x2011;" d="M109 455l55 202h739l-55 -202h-739z" />
<glyph unicode="&#x2012;" d="M109 455l55 202h739l-55 -202h-739z" />
<glyph unicode="&#x2013;" horiz-adv-x="1362" d="M96 414l86 284h1055l-86 -284h-1055z" />
<glyph unicode="&#x2014;" horiz-adv-x="1962" d="M92 414l86 284h1655l-86 -284h-1655z" />
<glyph unicode="&#x2018;" horiz-adv-x="608" d="M246 1061q0 144 82 260.5t225 178.5l10 -37q-90 -38 -154.5 -113t-70.5 -168q61 64 143 64q77 0 118.5 -34.5t41.5 -100.5q0 -63 -30 -112.5t-82 -77.5t-117 -28q-166 0 -166 168z" />
<glyph unicode="&#x2019;" horiz-adv-x="590" d="M274 1327q0 63 30 112.5t82 77.5t117 28q166 0 166 -168q0 -144 -82 -260.5t-225 -178.5l-10 37q90 38 154.5 113t70.5 168q-61 -64 -143 -64q-77 0 -118.5 34.5t-41.5 100.5z" />
<glyph unicode="&#x201a;" horiz-adv-x="635" d="M-2 106q0 63 30 112.5t82 77.5t117 28q166 0 166 -168q0 -144 -82 -260.5t-225 -178.5l-10 37q90 38 154.5 113t70.5 168q-61 -64 -143 -64q-77 0 -118.5 34.5t-41.5 100.5z" />
<glyph unicode="&#x201c;" horiz-adv-x="1055" d="M245 1063q0 144 83 261.5t225 177.5l10 -37q-90 -38 -154.5 -113t-70.5 -168q59 64 143 64q77 0 118.5 -34.5t41.5 -100.5q0 -62 -30 -112t-82.5 -78t-117.5 -28q-166 0 -166 168zM690 1063q0 144 82.5 261.5t224.5 177.5l10 -37q-90 -38 -154.5 -113t-70.5 -168 q61 64 143 64q77 0 118.5 -34.5t41.5 -100.5q0 -63 -30 -112.5t-82 -77.5t-117 -28q-166 0 -166 168z" />
<glyph unicode="&#x201d;" horiz-adv-x="1034" d="M277 1333q0 63 30 112.5t82 77.5t117 28q166 0 166 -168q0 -144 -82.5 -261.5t-224.5 -177.5l-10 37q90 38 154.5 113t70.5 168q-61 -64 -143 -64q-77 0 -118.5 34.5t-41.5 100.5zM721 1333q0 62 30 112t82.5 78t117.5 28q166 0 166 -168q0 -144 -83 -261.5t-225 -177.5 l-10 37q90 38 154.5 113t70.5 168q-59 -64 -143 -64q-77 0 -118.5 34.5t-41.5 100.5z" />
<glyph unicode="&#x201e;" horiz-adv-x="1079" d="M-2 106q0 63 30 112.5t82 77.5t117 28q166 0 166 -168q0 -144 -82.5 -261.5t-224.5 -177.5l-10 37q90 38 154.5 113t70.5 168q-61 -64 -143 -64q-77 0 -118.5 34.5t-41.5 100.5zM442 106q0 62 30 112t82.5 78t117.5 28q166 0 166 -168q0 -144 -83 -261.5t-225 -177.5 l-10 37q90 38 154.5 113t70.5 168q-59 -64 -143 -64q-77 0 -118.5 34.5t-41.5 100.5z" />
<glyph unicode="&#x2026;" horiz-adv-x="1767" d="M-2 106q0 63 30 112.5t82 77.5t117 28q79 0 120.5 -35.5t41.5 -104.5q0 -54 -31 -103t-84 -79.5t-116 -30.5q-79 0 -119.5 34.5t-40.5 100.5zM573 106q0 63 30 112.5t82 77.5t117 28q79 0 120.5 -35.5t41.5 -104.5q0 -54 -31 -103t-84 -79.5t-116 -30.5 q-79 0 -119.5 34.5t-40.5 100.5zM1147 106q0 63 30 112.5t82 77.5t117 28q79 0 120.5 -35.5t41.5 -104.5q0 -54 -31 -103t-84 -79.5t-116 -30.5q-79 0 -119.5 34.5t-40.5 100.5z" />
<glyph unicode="&#x202f;" horiz-adv-x="397" />
<glyph unicode="&#x2039;" horiz-adv-x="831" d="M31 510l10 41q188 110 363 239.5t382 301.5h37q-40 -86 -108.5 -198t-143.5 -211.5t-131 -152.5q32 -52 61 -152t46 -211t16 -196h-37q-119 164 -237 295.5t-258 243.5z" />
<glyph unicode="&#x203a;" horiz-adv-x="827" d="M-31 -29q40 86 108 197t142 210.5t129 151.5q-31 53 -59.5 153.5t-45.5 212.5t-16 196h37q123 -169 240 -299.5t258 -241.5l-10 -41q-191 -111 -367 -240t-379 -299h-37z" />
<glyph unicode="&#x205f;" horiz-adv-x="496" />
<glyph unicode="&#x20ac;" horiz-adv-x="1411" d="M70 608l12 41h167q20 81 54 164h-178l12 41h184q75 168 195.5 309.5t281 228.5t343.5 87q133 0 217 -70q48 -41 74 -99t26 -122q0 -67 -27 -118.5t-72 -79t-97 -27.5q-69 0 -111.5 44.5t-42.5 114.5q0 85 60.5 152.5t146.5 105.5q-9 17 -41 30t-68 13q-88 0 -176.5 -76.5 t-164 -205.5t-130.5 -287h320l-35 -41h-299q-26 -82 -45 -164h209l-37 -41h-181q-30 -150 -30 -280q0 -109 17 -175.5t55 -98t102 -31.5q32 0 67 7t58 21q-38 28 -64 76t-26 100q0 69 28 123.5t75 84.5t102 30q76 0 114.5 -44t38.5 -120q0 -85 -54.5 -155t-145.5 -117 q-54 -28 -117.5 -43t-155.5 -15q-253 0 -380.5 114.5t-127.5 365.5q0 73 17 157h-170z" />
<glyph unicode="&#x20b9;" horiz-adv-x="1165" d="M123 711q0 40 62 40q45 0 122 -20q138 30 201 142.5t63 269.5q0 32 -3 61h-326l10 41h311q-29 160 -149 164h-117l10 41h940l-10 -41h-644q154 -18 254 -54t138 -110h211l-10 -41h-187q5 -21 5 -45q0 -98 -77.5 -191.5t-219 -161.5t-324.5 -93q144 -19 227 -49.5t120 -80 t37 -127.5q0 -21 -1 -32l-16 -209q-2 -20 -2 -34q0 -93 62 -93q38 0 71 33.5t55 97.5l10 29h47l-8 -27q-77 -250 -364 -250q-286 0 -286 237q0 20 1 30l12 159q11 156 11 177q0 50 -10.5 77.5t-37.5 38.5q-78 -21 -125 -21q-63 0 -63 42z" />
<glyph unicode="&#x2122;" horiz-adv-x="2431" d="M326 1450q120 -6 413 -6q291 0 412 6q-14 -112 -14 -201q0 -67 6 -106h-47q-15 92 -43.5 150.5t-62 84t-66.5 25.5h-50v-612q0 -60 10.5 -86t39.5 -36t96 -14v-41q-130 7 -281 7q-175 0 -282 -7v41q67 4 95.5 14t39 36t10.5 86v612h-49q-33 0 -66.5 -25.5t-62 -84 t-43.5 -150.5h-47q6 36 6 106q0 89 -14 201zM1227 614v41q48 4 68.5 12t28 30t7.5 73v524q0 51 -7.5 73.5t-28 30.5t-68.5 11v41q83 -6 252 -6q72 0 139 6l182 -453l170 447h158q142 0 219 6v-41q-48 -3 -68.5 -11t-28 -30.5t-7.5 -73.5v-524q0 -51 7.5 -73t28 -30t68.5 -12 v-41q-110 7 -240 7q-135 0 -221 -7v41q38 4 54.5 12t23 30.5t6.5 72.5v545l-268 -711h-33l-291 715v-549q0 -50 6.5 -72.5t23 -30.5t54.5 -12v-41q-49 7 -106 7q-76 0 -129 -7z" />
<glyph unicode="&#xe000;" horiz-adv-x="1275" d="M0 0v1275h1275v-1275h-1275z" />
</font>
</defs>
</svg>
